<?xml version="1.0" standalone="no"?>
<!DOCTYPE svg PUBLIC "-//W3C//DTD SVG 1.1//EN" "http://www.w3.org/Graphics/SVG/1.1/DTD/svg11.dtd" >
<svg>
<metadata>
Created by FontForge 20090914 at Thu Aug 22 09:59:32 2013
 By www-data
Copyright (c) 2007 by True Corporation PLC.. All rights reserved.
</metadata>
<defs>
<font id="TrueMedium" horiz-adv-x="0" >
  <font-face 
    font-family="True Medium"
    font-weight="400"
    font-stretch="normal"
    units-per-em="2048"
    panose-1="2 0 5 6 0 0 0 2 0 4"
    ascent="1638"
    descent="-410"
    x-height="705"
    cap-height="965"
    bbox="-870 -584 1593 1599"
    underline-thickness="72"
    underline-position="-123"
    unicode-range="U+0020-U+F880"
  />
<missing-glyph horiz-adv-x="1599" 
d="M100 0v1599h1399v-1599h-1399zM1401 100v1399h-1200v-1399h1200z" />
    <glyph glyph-name="saraueesp1" unicode="&#xe37;&#xe48;" 
d="M-731 922v112h332v103h133v-103h61v103h133v-215h-659zM-303 1188v205h133v-205h-133z" />
    <glyph glyph-name=".notdef" horiz-adv-x="1599" 
d="M100 0v1599h1399v-1599h-1399zM1401 100v1399h-1200v-1399h1200z" />
    <glyph glyph-name="space" unicode=" " horiz-adv-x="553" 
 />
    <glyph glyph-name="space" unicode="&#xa0;" horiz-adv-x="553" 
 />
    <glyph glyph-name="exclam" unicode="!" horiz-adv-x="539" 
d="M330 270h-119l-18 695h153zM193 0v156h153v-156h-153z" />
    <glyph glyph-name="quotedbl" unicode="&#x22;" horiz-adv-x="768" 
d="M428 627v338h121v-338h-121zM219 627v338h123v-338h-123z" />
    <glyph glyph-name="numbersign" unicode="#" horiz-adv-x="768" 
d="M584 571l-25 -178h131v-106h-147l-39 -287h-107l41 287h-164l-38 -287h-107l41 287h-131v106h145l27 178h-133v107h147l41 287h105l-41 -287h164l41 287h104l-41 -287h131v-107h-145zM315 571l-24 -178h162l26 178h-164z" />
    <glyph glyph-name="dollar" unicode="$" horiz-adv-x="768" 
d="M666 270c0 -37.333 -5.83105 -71.8311 -17.498 -103.498s-28.334 -59.5 -50.001 -83.5s-47.5 -43.833 -77.5 -59.5s-63 -26.167 -99 -31.5v-139h-80v131h-16c-41.333 0 -78.833 3.33301 -112.5 10s-66.5 16.334 -98.5 29.001l16 133
c25.333 -17.333 53.5 -30.333 84.5 -39s66.5 -13 106.5 -13h20v336l-47 25c-26.667 14 -51.667 28.833 -75 44.5s-43.5 33.5 -60.5 53.5s-30.5 42.667 -40.5 68s-15 54.666 -15 87.999c0 34.667 6.16699 66.5 18.5 95.5s29.166 54.667 50.499 77s46.5 40.666 75.5 54.999
s60.167 24.5 93.5 30.5v137h80v-133c66.667 0 132 -11.667 196 -35l-18 -127c-23.333 14.667 -48.5 25.167 -75.5 31.5s-56.5 9.5 -88.5 9.5h-14v-301l80 -43c26 -14 49.167 -28.833 69.5 -44.5s37.5 -33.334 51.5 -53.001s24.667 -41.5 32 -65.5s11 -51.667 11 -83z
M342.002 848.002c-30 -10.667 -52.833 -25.333 -68.5 -44s-23.5 -45.667 -23.5 -81c0 -14 2.66699 -27 8 -39s12.333 -23 21 -33s18.5 -19 29.5 -27s22.167 -15.333 33.5 -22v246zM518.002 262.003c0 18.667 -2.5 35.167 -7.5 49.5s-11.667 27 -20 38s-18.333 20.5 -30 28.5
s-24.5 15.667 -38.5 23v-280c14 4 27 10.667 39 20s22.167 20.333 30.5 33s14.833 26.5 19.5 41.5s7 30.5 7 46.5z" />
    <glyph glyph-name="percent" unicode="%" horiz-adv-x="1382" 
d="M1231 260c0 -34.667 -3.33496 -68.5029 -10.002 -101.503s-18.167 -62.5 -34.5 -88.5s-37.833 -46.833 -64.5 -62.5s-60 -23.5 -100 -23.5c-39.333 0 -72.333 7.83301 -99 23.5s-48 36.5 -64 62.5s-27.333 55.5 -34 88.5s-10 66.833 -10 101.5
c0 36.667 2.83301 71.834 8.5 105.501s16.334 63.167 32.001 88.5s36.834 45.5 63.501 60.5s61 22.5 103 22.5s76.5 -7.66699 103.5 -23s48.333 -35.666 64 -60.999s26.5 -54.666 32.5 -87.999s9 -68.333 9 -105zM439.998 -31.0029h-98l598 1026h100zM566.998 704.997
c0 -35.333 -3.33398 -69.5 -10.001 -102.5s-18.167 -62.5 -34.5 -88.5s-37.833 -46.833 -64.5 -62.5s-60 -23.5 -100 -23.5c-39.333 0 -72.166 7.83301 -98.499 23.5s-47.5 36.5 -63.5 62.5s-27.333 55.5 -34 88.5s-10 67.167 -10 102.5c0 36.667 2.83301 71.667 8.5 105
s16.167 62.666 31.5 87.999s36.333 45.5 63 60.5s61 22.5 103 22.5s76.5 -7.5 103.5 -22.5s48.333 -35.167 64 -60.5s26.5 -54.666 32.5 -87.999s9 -68.333 9 -105zM1108 259.997c0 15.333 -0.168945 33.332 -0.501953 53.999s-3 40.334 -8 59.001s-13.5 34.5 -25.5 47.5
s-29.333 19.5 -52 19.5c-21.333 0 -37.666 -6.66699 -48.999 -20s-19.5 -29.5 -24.5 -48.5s-8 -38.833 -9 -59.5s-1.5 -38 -1.5 -52s0.5 -31.333 1.5 -52s4.16699 -40.5 9.5 -59.5s13.666 -35.167 24.999 -48.5s27.333 -20 48 -20s36.834 6.66699 48.501 20
s20.334 29.5 26.001 48.5s9 38.833 10 59.5s1.5 38 1.5 52zM443.995 704.996c0 16 -0.168945 34.335 -0.501953 55.002s-3 40.167 -8 58.5s-13.333 34 -25 47s-29.167 19.5 -52.5 19.5c-21.333 0 -37.666 -6.66699 -48.999 -20s-19.5 -29.333 -24.5 -48
s-8 -38.334 -9 -59.001s-1.5 -38.334 -1.5 -53.001c0 -14 0.5 -31.333 1.5 -52s4.16699 -40.5 9.5 -59.5s13.666 -35.333 24.999 -49s27.333 -20.5 48 -20.5s36.834 6.83301 48.501 20.5s20.334 30 26.001 49s9 38.833 10 59.5s1.5 38 1.5 52z" />
    <glyph glyph-name="ampersand" unicode="&#x26;" horiz-adv-x="997" 
d="M780 0l-78.0049 94.002c-34.667 -40 -73.834 -68.333 -117.501 -85s-96.5 -25 -158.5 -25c-47.333 0 -90.166 6.5 -128.499 19.5s-71 31.333 -98 55s-47.833 52 -62.5 85s-22 69.833 -22 110.5c0 36 5.16699 68.5 15.5 97.5s24.833 55 43.5 78s41.334 43 68.001 60
s56 32.167 88 45.5l-37 48c-12 16 -22.5 33 -31.5 51s-16.333 37 -22 57s-8.5 41.667 -8.5 65c0 38 6.66699 71.167 20 99.5s31.333 51.833 54 70.5s49.334 32.5 80.001 41.5s63.334 13.5 98.001 13.5c31.333 0 61.333 -4.16699 90 -12.5s54 -21.333 76 -39
s39.5 -40.167 52.5 -67.5s19.5 -60 19.5 -98c0 -30.667 -6.16699 -59 -18.5 -85s-28.5 -49.5 -48.5 -70.5s-42.667 -39.5 -68 -55.5s-50.666 -29.667 -75.999 -41l197 -225c8.66699 14.667 16.5 30 23.5 46s12.833 33.167 17.5 51.5s8.5 38.666 11.5 60.999
s5.16699 47.166 6.5 74.499h129c-3.33301 -38.667 -8.33301 -73.667 -15 -105s-14.667 -60.166 -24 -86.499s-20.166 -50.833 -32.499 -73.5s-25.5 -44.334 -39.5 -65.001l170 -190h-174zM591.995 758.002c0 44 -10.834 74.834 -32.501 92.501s-49.167 26.5 -82.5 26.5
c-16 0 -31 -2.5 -45 -7.5s-26.333 -12.833 -37 -23.5s-19.167 -23.834 -25.5 -39.501s-9.5 -33.834 -9.5 -54.501c0 -16.667 2.66699 -32.334 8 -47.001s12 -28.667 20 -42s17.167 -26 27.5 -38l30.5 -35c14.667 6.66699 30.5 15.334 47.5 26.001s32.833 23 47.5 37
s26.834 29.833 36.501 47.5s14.5 36.834 14.5 57.501zM396.994 453.003l-51.501 -37.501c-16.333 -12.333 -30.666 -25.833 -42.999 -40.5s-22.166 -31.167 -29.499 -49.5s-11 -39.5 -11 -63.5c0 -26.667 5.16699 -50.667 15.5 -72s24.166 -39.5 41.499 -54.5
s37.333 -26.667 60 -35s46.667 -12.5 72 -12.5c22.667 0 43.167 3.16699 61.5 9.5s34.833 14.333 49.5 24s27.5 19.834 38.5 30.501l28.5 28z" />
    <glyph glyph-name="quotesingle" unicode="'" horiz-adv-x="385" 
d="M131 627v338h123v-338h-123z" />
    <glyph glyph-name="parenleft" unicode="(" horiz-adv-x="461" 
d="M317 -193c-32 46.667 -61.666 94.333 -88.999 143s-51.333 98.5 -72 149.5s-36.834 103.667 -48.501 158s-17.5 110.5 -17.5 168.5c0 58.667 6 115 18 169s28.333 106.167 49 156.5s44.667 99.666 72 147.999s56.666 96.5 87.999 144.5h123l-78 -145
c-25.333 -49.333 -48 -99.666 -68 -150.999s-36.167 -103.833 -48.5 -157.5s-18.5 -108.5 -18.5 -164.5s6 -110.833 18 -164.5s27.833 -106.5 47.5 -158.5s42.334 -102.667 68.001 -152s52.167 -97.333 79.5 -144h-123z" />
    <glyph glyph-name="parenright" unicode=")" horiz-adv-x="461" 
d="M371 426c0 -59.333 -5.99707 -116 -17.9971 -170s-28.333 -106.333 -49 -157s-44.834 -100 -72.501 -148s-57.167 -96 -88.5 -144h-125l78.5 145c25.667 49.333 48.5 99.833 68.5 151.5s36 104.334 48 158.001s18 108.5 18 164.5s-5.83301 110.833 -17.5 164.5
s-27.334 106.167 -47.001 157.5s-42.334 101.666 -68.001 150.999s-52.5 97.666 -80.5 144.999h125c32 -47.333 61.833 -95.166 89.5 -143.499s51.667 -98 72 -149s36.5 -103.5 48.5 -157.5s18 -110 18 -168z" />
    <glyph glyph-name="asterisk" unicode="*" horiz-adv-x="768" 
d="M453 668l147 -170l-104 -70l-111 190l-115 -190l-102 70l154 170l-222 45l37 118l209 -86l-20 220h125l-21 -220l201 86l39 -118z" />
    <glyph glyph-name="plus" unicode="+" horiz-adv-x="829" 
d="M475 289v-289h-121v289h-288v121h288v290h121v-290h289v-121h-289z" />
    <glyph glyph-name="comma" unicode="," horiz-adv-x="385" 
d="M152 -184h-125l88 340h155z" />
    <glyph glyph-name="hyphen" unicode="-" horiz-adv-x="461" 
d="M53 319v105h355v-105h-355z" />
    <glyph glyph-name="period" unicode="." horiz-adv-x="385" 
d="M115 0v156h155v-156h-155z" />
    <glyph glyph-name="slash" unicode="/" horiz-adv-x="385" 
d="M88 -16h-123l332 997h123z" />
    <glyph glyph-name="zero" unicode="0" horiz-adv-x="768" 
d="M713 483c0 -35.333 -2 -72.333 -6 -111s-10.667 -76.334 -20 -113.001s-22 -71.667 -38 -105s-36.167 -62.666 -60.5 -87.999s-53.333 -45.333 -87 -60s-72.5 -22 -116.5 -22c-44.667 0 -83.834 7.33301 -117.501 22s-62.667 34.667 -87 60s-44.333 54.666 -60 87.999
s-28.334 68.333 -38.001 105s-16.334 74.334 -20.001 113.001s-5.5 75.667 -5.5 111s1.83301 72.166 5.5 110.499s10.334 75.833 20.001 112.5s22.334 71.667 38.001 105s35.667 62.666 60 87.999s53.333 45.333 87 60s72.834 22 117.501 22c44 0 82.833 -7.33301 116.5 -22
s62.667 -34.667 87 -60s44.5 -54.666 60.5 -87.999s28.667 -68.333 38 -105s16 -74.167 20 -112.5s6 -75.166 6 -110.499zM565 483c0 20 -0.833008 43.5 -2.5 70.5s-4.66699 54.667 -9 83s-10.666 56.333 -18.999 84s-19.166 52.5 -32.499 74.5s-29.666 39.667 -48.999 53
s-42 20 -68 20c-26.667 0 -49.667 -6.66699 -69 -20s-35.833 -31 -49.5 -53s-24.5 -46.833 -32.5 -74.5s-14.333 -55.667 -19 -84s-7.83398 -56 -9.50098 -83s-2.5 -50.5 -2.5 -70.5s0.666992 -43.5 2 -70.5s4.16602 -54.833 8.49902 -83.5s10.5 -57 18.5 -85
s18.667 -52.833 32 -74.5s29.833 -39.334 49.5 -53.001s43.5 -20.5 71.5 -20.5s51.667 6.83301 71 20.5s35.666 31.334 48.999 53.001s24 46.5 32 74.5s14 56.333 18 85s6.66699 56.5 8 83.5s2 50.5 2 70.5z" />
    <glyph glyph-name="one" unicode="1" horiz-adv-x="768" 
d="M373 0v807l-150 -129l-71 94l235 193h123v-965h-137z" />
    <glyph glyph-name="two" unicode="2" horiz-adv-x="768" 
d="M70 0l0.00585938 147l81 74l91 82l88.5 84c32.333 31.333 62.5 64.833 90.5 100.5s51.5 72.667 70.5 111s28.5 77.166 28.5 116.499c0 22.667 -4.66699 43.334 -14 62.001s-22.333 34.667 -39 48s-36.334 23.833 -59.001 31.5s-47.334 11.5 -74.001 11.5
c-43.333 0 -84.333 -6.5 -123 -19.5s-71.334 -26.833 -98.001 -41.5l-13 119c40 16 81.167 29.167 123.5 39.5s85.166 15.5 128.499 15.5s84.166 -5.83301 122.499 -17.5s71.666 -29 99.999 -52s50.666 -51.667 66.999 -86s24.5 -73.833 24.5 -118.5
c0 -40 -9.5 -80.333 -28.5 -121s-42.667 -80.167 -71 -118.5s-58.666 -74.5 -90.999 -108.5l-88.5 -91l-42.5 -40.5l-45 -40.5l-43.5 -39l-39 -35h463v-113h-610z" />
    <glyph glyph-name="three" unicode="3" horiz-adv-x="768" 
d="M672 258c0 -55.333 -10.832 -100.665 -32.499 -135.998s-50.334 -63.333 -86.001 -84s-76.334 -34.834 -122.001 -42.501s-92.5 -11.5 -140.5 -11.5c-38 0 -76.667 3.66699 -116 11s-74.333 15.666 -105 24.999l8 130c25.333 -12.667 56.666 -24.834 93.999 -36.501
s77 -17.5 119 -17.5c26 0 52.833 2.83301 80.5 8.5s52.667 15 75 28s40.833 30 55.5 51s22 47.167 22 78.5c0 36 -6.66699 65.667 -20 89s-31 42 -53 56s-47.333 23.667 -76 29s-58.667 8 -90 8h-84v115h78c24.667 0 50.834 2.5 78.501 7.5s53.167 13.5 76.5 25.5
s42.833 28.167 58.5 48.5s23.5 45.833 23.5 76.5c0 27.333 -5.16699 50.666 -15.5 69.999s-24 35 -41 47s-37 20.667 -60 26s-46.833 8 -71.5 8c-44 0 -83.333 -5.16699 -118 -15.5s-67 -22.833 -97 -37.5l-9 123c16 6 33.833 11.667 53.5 17s40.167 10 61.5 14
s42.833 7 64.5 9s42.5 3 62.5 3c42.667 0 83.167 -5.16699 121.5 -15.5s72 -26.166 101 -47.499s52.167 -48.5 69.5 -81.5s26 -72.167 26 -117.5c0 -30 -5.66699 -57.5 -17 -82.5s-26.5 -46.667 -45.5 -65s-41 -33.666 -66 -45.999s-51.167 -20.833 -78.5 -25.5v-4
c32 -6.66699 61.333 -16.5 88 -29.5s49.334 -29.333 68.001 -49s33.167 -42.667 43.5 -69s15.5 -56.5 15.5 -90.5z" />
    <glyph glyph-name="four" unicode="4" horiz-adv-x="768" 
d="M614 219v-219h-139v219h-448v115l389 631h198v-631h121v-115h-121zM475 852h-2l-301 -518h303v518z" />
    <glyph glyph-name="five" unicode="5" horiz-adv-x="768" 
d="M688 309c0 -53.333 -9.83398 -100.167 -29.501 -140.5s-46.167 -74.166 -79.5 -101.499s-72.5 -48 -117.5 -62s-92.5 -21 -142.5 -21c-52 0 -95 3.5 -129 10.5s-59.667 13.5 -77 19.5l4 131c14.667 -8 29.334 -15 44.001 -21s30 -11.167 46 -15.5s33 -7.5 51 -9.5
s37.667 -3 59 -3c28.667 0 56.667 4.16699 84 12.5s51.5 20.666 72.5 36.999s37.833 36.333 50.5 60s19 50.834 19 81.501c0 34.667 -6.16699 65 -18.5 91s-29 47.5 -50 64.5s-45.833 29.833 -74.5 38.5s-59 13 -91 13c-42 0 -77.5 -3.33301 -106.5 -10
s-56.167 -15.667 -81.5 -27l8 508h533v-113h-402l-8 -258c13.333 3.33301 30.5 6.16602 51.5 8.49902s45.5 3.5 73.5 3.5c42.667 0 82.834 -7.5 120.501 -22.5s70.667 -35.833 99 -62.5s50.666 -58 66.999 -94s24.5 -75.333 24.5 -118z" />
    <glyph glyph-name="six" unicode="6" horiz-adv-x="768" 
d="M707 303c0 -50 -8.00293 -94.6709 -24.0029 -134.004s-38 -72.666 -66 -99.999s-60.833 -48.333 -98.5 -63s-78.167 -22 -121.5 -22c-44.667 0 -83.834 6.33301 -117.501 19s-62.5 30 -86.5 52s-43.833 48 -59.5 78s-28 62 -37 96s-15.333 69.5 -19 106.5
s-5.5 73.833 -5.5 110.5c0 66 6 130.833 18 194.5s33 120.834 63 171.501s70.167 91.5 120.5 122.5s113.5 46.5 189.5 46.5c16.667 0 34.834 -0.833008 54.501 -2.5s38.667 -3.83398 57 -6.50098s35.333 -6 51 -10s27.834 -8 36.501 -12l-19 -123
c-49.333 27.333 -106.666 41 -171.999 41c-45.333 0 -84.666 -9.66699 -117.999 -29s-61 -45.166 -83 -77.499s-38.5 -69.666 -49.5 -111.999s-16.833 -86.833 -17.5 -133.5l2 2c32.667 33.333 66 56.333 100 69s71 19 111 19c46.667 0 88 -7.66699 124 -23
s66.333 -36.666 91 -63.999s43.5 -59.5 56.5 -96.5s19.5 -76.833 19.5 -119.5zM558.997 298.996c0 22.667 -3.16895 45.5029 -9.50195 68.5029s-16.166 43.833 -29.499 62.5s-30.166 34 -50.499 46s-44.5 18 -72.5 18c-28.667 0 -54 -5 -76 -15s-40.5 -23.833 -55.5 -41.5
s-26.5 -38.334 -34.5 -62.001s-12 -49.167 -12 -76.5c0 -22.667 3.5 -46 10.5 -70s17.5 -45.833 31.5 -65.5s31.667 -35.834 53 -48.501s46.333 -19 75 -19s53.667 5.83301 75 17.5s39 27 53 46s24.5 40.667 31.5 65s10.5 49.166 10.5 74.499z" />
    <glyph glyph-name="seven" unicode="7" horiz-adv-x="768" 
d="M322 0h-152l369 852h-471v113h610v-113z" />
    <glyph glyph-name="eight" unicode="8" horiz-adv-x="768" 
d="M717 260c0 -48.667 -9 -90.3271 -27 -124.994s-42.333 -63.167 -73 -85.5s-66.334 -38.833 -107.001 -49.5s-83.667 -16 -129 -16c-40.667 0 -80.5 5.66699 -119.5 17s-74 28.166 -105 50.499s-56 50.333 -75 84s-28.5 73.167 -28.5 118.5c0 32 5.16699 61.167 15.5 87.5
s24.666 50.166 42.999 71.499s40 40 65 56s52.167 29 81.5 39v2c-35.333 12 -64.666 27 -87.999 45s-42 37.833 -56 59.5s-23.833 44.167 -29.5 67.5s-8.5 46.666 -8.5 69.999c0 30.667 7.16699 59.834 21.5 87.501s34.833 52 61.5 73s59.334 37.667 98.001 50
s82.667 18.5 132 18.5c48 0 90.333 -6.33301 127 -19s67.667 -29.334 93 -50.001s44.5 -43.834 57.5 -69.501s19.5 -51.834 19.5 -78.501s-3 -51.334 -9 -74.001s-15.667 -44 -29 -64s-31.166 -39 -53.499 -57s-49.833 -35.667 -82.5 -53c29.333 -10 56.5 -23 81.5 -39
s46.667 -34.667 65 -56s32.666 -45.5 42.999 -72.5s15.5 -56.5 15.5 -88.5zM541 745.007c0 23.333 -5.33398 42.833 -16.001 58.5s-24 28.334 -40 38.001s-33.667 16.5 -53 20.5s-37.666 6 -54.999 6c-16 0 -33.5 -2.83301 -52.5 -8.5s-36.5 -14.167 -52.5 -25.5
s-29.5 -25.666 -40.5 -42.999s-16.5 -37.333 -16.5 -60c0 -32.667 16.833 -62.334 50.5 -89.001s83.167 -55.667 148.5 -87c28 22 50.333 41.167 67 57.5s29.5 31.666 38.5 45.999s14.833 28.333 17.5 42s4 28.5 4 44.5zM568.999 248.007
c0.666992 34 -5.00098 61.668 -17.001 83.001s-28 39.166 -48 53.499s-42.833 26.833 -68.5 37.5s-51.5 22.334 -77.5 35.001c-19.333 -14 -38.5 -26.667 -57.5 -38s-36 -24 -51 -38s-27.167 -30.333 -36.5 -49s-14 -42 -14 -70c0 -26.667 5.66699 -50.334 17 -71.001
s26 -38 44 -52s38.667 -24.667 62 -32s47 -11 71 -11c23.333 0 45.5 3.33301 66.5 10s39.5 16.5 55.5 29.5s28.833 29 38.5 48s14.834 40.5 15.501 64.5z" />
    <glyph glyph-name="nine" unicode="9" horiz-adv-x="768" 
d="M696 518c0 -43.333 -2.66309 -86.6699 -7.99609 -130.003s-14 -84.666 -26 -123.999s-27.833 -76.166 -47.5 -110.499s-44 -64 -73 -89s-63 -44.667 -102 -59s-83.833 -21.5 -134.5 -21.5c-16 0 -33.833 0.833008 -53.5 2.5s-38.834 3.83398 -57.501 6.50098
s-35.834 5.83398 -51.501 9.50098s-27.834 7.5 -36.501 11.5l19 123c25.333 -13.333 52.666 -23.5 81.999 -30.5s59.333 -10.5 90 -10.5c44.667 0 83.834 9.66699 117.501 29s61.5 45.166 83.5 77.499s38.667 69.833 50 112.5s17.666 87.334 18.999 134.001l-4 -3
c-32 -32 -65.167 -54.667 -99.5 -68s-71.5 -20 -111.5 -20c-46.667 0 -88 7.66699 -124 23s-66.333 36.666 -91 63.999s-43.5 59.5 -56.5 96.5s-19.5 77.167 -19.5 120.5c0 50 8 94.667 24 134s38 72.833 66 100.5s61 48.667 99 63s79 21.5 123 21.5
c44.667 0 83.667 -6.33301 117 -19s62 -30.167 86 -52.5s43.667 -48.333 59 -78s27.5 -61.667 36.5 -96s15.333 -70 19 -107s5.5 -73.833 5.5 -110.5zM551.004 665.996c0 22.667 -3.49805 45.8301 -10.498 69.4971s-17.667 45.334 -32 65.001s-32.166 35.834 -53.499 48.501
s-46 19 -74 19c-29.333 0 -54.833 -5.66699 -76.5 -17s-39.5 -26.5 -53.5 -45.5s-24.5 -40.667 -31.5 -65s-10.5 -49.166 -10.5 -74.499c0 -22.667 3.33301 -45.667 10 -69s16.667 -44.333 30 -63s30.166 -33.834 50.499 -45.501s44.166 -17.5 71.499 -17.5
c28.667 0 54.167 5 76.5 15s41.166 23.833 56.499 41.5s27 38.334 35 62.001s12 49.167 12 76.5z" />
    <glyph glyph-name="colon" unicode=":" horiz-adv-x="385" 
d="M115 551v154h155v-154h-155zM115 0v156h155v-156h-155z" />
    <glyph glyph-name="semicolon" unicode=";" horiz-adv-x="385" 
d="M115 551v154h155v-154h-155zM152 -184h-125l88 340h155z" />
    <glyph glyph-name="less" unicode="&#x3c;" horiz-adv-x="829" 
d="M63 297v104l703 310v-121l-545 -240l545 -239v-121z" />
    <glyph glyph-name="equal" unicode="=" horiz-adv-x="829" 
d="M66 434v121h698v-121h-698zM66 143v123h698v-123h-698z" />
    <glyph glyph-name="greater" unicode="&#x3e;" horiz-adv-x="829" 
d="M63 -10v121l545 239l-545 240v121l703 -310v-104z" />
    <glyph glyph-name="question" unicode="?" horiz-adv-x="690" 
d="M631 729c0 -36 -6.50098 -68.334 -19.501 -97.001s-29.167 -55.667 -48.5 -81s-40 -50.333 -62 -75s-42.333 -51 -61 -79c-11.333 -16 -18.833 -32.167 -22.5 -48.5s-5.5 -34.166 -5.5 -53.499v-25h-129v29c0 22.667 1.33301 42.5 4 59.5s7.33398 33.333 14.001 49
s15.5 31.167 26.5 46.5s24.833 32.666 41.5 51.999l38.5 45c13.667 16 26 32.833 37 50.5s20.167 36.334 27.5 56.001s11 40.834 11 63.501c0 24 -4.66699 44.667 -14 62s-21.666 31.833 -36.999 43.5s-33 20.167 -53 25.5s-40.667 8 -62 8c-46 0 -85.833 -5 -119.5 -15
s-61.834 -23.333 -84.501 -40l-11 131c31.333 13.333 66 24.166 104 32.499s80 12.5 126 12.5c38 0 74.833 -5.33301 110.5 -16s67.5 -26.5 95.5 -47.5s50.5 -47.333 67.5 -79s25.5 -68.167 25.5 -109.5zM269.999 -0.000976562v156h154v-156h-154z" />
    <glyph glyph-name="at" unicode="@" horiz-adv-x="1106" 
d="M1036 571c0 -43.333 -5.66992 -82.9961 -17.0029 -118.996s-26.166 -68.333 -44.499 -97s-39.166 -53.5 -62.499 -74.5s-47 -38.5 -71 -52.5s-47.667 -24.5 -71 -31.5s-43.666 -10.5 -60.999 -10.5c-20.667 0 -38.834 6.66699 -54.501 20s-24.167 32.666 -25.5 57.999h-2
c-9.33301 -10 -19.833 -19.667 -31.5 -29s-24 -17.666 -37 -24.999s-26.667 -13.166 -41 -17.499s-28.5 -6.5 -42.5 -6.5c-28.667 0 -55.5 5.83301 -80.5 17.5s-46.667 27.667 -65 48s-32.833 44 -43.5 71s-16 55.5 -16 85.5c0 42.667 7.16699 84.834 21.5 126.501
s34.5 79 60.5 112s57.167 59.5 93.5 79.5s76.833 30 121.5 30c32 0 61.5 -7.16699 88.5 -21.5s50.167 -37.833 69.5 -70.5l20 71h105l-92 -350c-3.33301 -10 -6.33301 -20.333 -9 -31s-4 -20 -4 -28c1.33301 -10.667 3.66602 -19.167 6.99902 -25.5s10 -9.5 20 -9.5
c20 0 40 7 60 21s38 32.833 54 56.5s29 51.167 39 82.5s15 64.666 15 99.999c0 54 -9.66699 101.667 -29 143s-45.5 76.166 -78.5 104.499s-71.833 49.833 -116.5 64.5s-92.334 22 -143.001 22c-58 0 -111 -10.5 -159 -31.5s-89.167 -49.667 -123.5 -86
s-61 -79.333 -80 -129s-28.5 -102.834 -28.5 -159.501c0 -65.333 10.167 -123 30.5 -173s48.5 -91.667 84.5 -125s78.833 -58.5 128.5 -75.5s103.834 -25.5 162.501 -25.5s114.167 11 166.5 33s96.5 52 132.5 90h106c-22.667 -34 -48.834 -64.667 -78.501 -92
s-62.167 -50.333 -97.5 -69s-72.833 -33 -112.5 -43s-80.5 -15 -122.5 -15c-71.333 0 -138.166 11.167 -200.499 33.5s-116.5 54.666 -162.5 96.999s-82.333 94.5 -109 156.5s-40 132.667 -40 212c0 75.333 13.333 143.666 40 204.999s63 113.666 109 156.999
s99.5 76.833 160.5 100.5s126.167 35.5 195.5 35.5c60.667 0 118.834 -10 174.501 -30s104.834 -48 147.501 -84s76.5 -79.167 101.5 -129.5s37.5 -105.833 37.5 -166.5zM681.997 524.004c0 16.667 -2.83691 32.167 -8.50391 46.5s-13.167 26.833 -22.5 37.5
s-20.666 18.834 -33.999 24.501s-27.333 8.5 -42 8.5c-27.333 0 -52.166 -6.83301 -74.499 -20.5s-41.5 -31 -57.5 -52s-28.333 -44.167 -37 -69.5s-13 -49.666 -13 -72.999c0 -37.333 10 -67.833 30 -91.5s47.667 -35.5 83 -35.5c25.333 0 48.833 7.16699 70.5 21.5
s40.334 32.666 56.001 54.999s27.834 46.666 36.501 72.999s13 51.5 13 75.5z" />
    <glyph glyph-name="A" unicode="A" horiz-adv-x="997" 
d="M831 0l-98 244h-473l-98 -244h-146l412 965h145l408 -965h-150zM496 836l-193 -480h385z" />
    <glyph glyph-name="B" unicode="B" horiz-adv-x="844" 
d="M739 258c0 -52 -9.99902 -94.832 -29.999 -128.499s-46.833 -60 -80.5 -79s-72.5 -32.167 -116.5 -39.5s-90.333 -11 -139 -11h-258v965h262c49.333 0 94.666 -4.33301 135.999 -13s77 -22.667 107 -42s53.333 -44.5 70 -75.5s25 -68.833 25 -113.5
c0 -65.333 -18 -116.166 -54 -152.499s-84.333 -61.833 -145 -76.5v-3c32.667 -2.66699 62.667 -9.83398 90 -21.501s50.833 -27.334 70.5 -47.001s35 -43.167 46 -70.5s16.5 -58 16.5 -92zM575.001 709.001c0 28.667 -5.5 52.165 -16.5 70.498s-25 32.833 -42 43.5
s-36 18.167 -57 22.5s-41.833 6.5 -62.5 6.5h-143v-299h76c33.333 0 64.833 1.33301 94.5 4s55.667 9.33398 78 20.001s40 26.334 53 47.001s19.5 49 19.5 85zM594.001 269.999c0 37.333 -7.5 67.167 -22.5 89.5s-34.5 39.5 -58.5 51.5s-51 19.833 -81 23.5s-60 5.5 -90 5.5
h-88v-327h102c31.333 0 61.333 2 90 6s54 11.833 76 23.5s39.5 27.667 52.5 48s19.5 46.833 19.5 79.5z" />
    <glyph glyph-name="C" unicode="C" horiz-adv-x="844" 
d="M801 18c-18 -7.33301 -36.8311 -13.334 -56.498 -18.001s-39.167 -8.16699 -58.5 -10.5s-38 -3.83301 -56 -4.5s-34 -1 -48 -1c-76.667 0 -146.167 11.833 -208.5 35.5s-115.666 57.334 -159.999 101.001s-78.666 96.5 -102.999 158.5s-36.5 131.333 -36.5 208
c0 74 12.667 141.5 38 202.5s60.666 113 105.999 156s99.166 76.333 161.499 100s130.5 35.5 204.5 35.5c36.667 0 73.167 -3 109.5 -9s72.166 -16.667 107.499 -32l-13 -133c-59.333 35.333 -125.333 53 -198 53c-55.333 0 -105.833 -9.5 -151.5 -28.5
s-84.667 -45.167 -117 -78.5s-57.5 -73.166 -75.5 -119.499s-27 -96.5 -27 -150.5c0 -56.667 9.66699 -108.334 29 -155.001s45.5 -86.5 78.5 -119.5s71.667 -58.667 116 -77s91.5 -27.5 141.5 -27.5c17.333 0 35.666 1.16699 54.999 3.5s38.5 5.5 57.5 9.5
s36.833 9 53.5 15s31 12.667 43 20l8 -134v0z" />
    <glyph glyph-name="D" unicode="D" horiz-adv-x="997" 
d="M913 492c0 -81.333 -11.832 -152.667 -35.499 -214s-57.667 -112.5 -102 -153.5s-98.333 -72 -162 -93s-135.167 -31.5 -214.5 -31.5h-284v965h284c72 0 139.167 -10.833 201.5 -32.5s116.666 -52.667 162.999 -93s82.833 -89.833 109.5 -148.5s40 -125 40 -199z
M768.001 484.999c0 56.667 -9 107.167 -27 151.5s-43 81.833 -75 112.5s-69.5 54.167 -112.5 70.5s-89.5 24.5 -139.5 24.5h-160v-723h143c118.667 0 210.167 29.5 274.5 88.5s96.5 150.833 96.5 275.5z" />
    <glyph glyph-name="E" unicode="E" horiz-adv-x="768" 
d="M129 0v965h541v-121h-402v-283h367v-121h-367v-319h402v-121h-541z" />
    <glyph glyph-name="F" unicode="F" horiz-adv-x="690" 
d="M254 844v-283h356v-121h-356v-440h-139v965h512v-121h-373z" />
    <glyph glyph-name="G" unicode="G" horiz-adv-x="997" 
d="M877 27c-13.333 -4.66699 -29.166 -9.50098 -47.499 -14.501s-39.5 -9.66699 -63.5 -14s-51.167 -7.83301 -81.5 -10.5s-64.5 -4 -102.5 -4c-76.667 0 -146.167 11.833 -208.5 35.5s-115.666 57.334 -159.999 101.001s-78.666 96.5 -102.999 158.5
s-36.5 131.333 -36.5 208c0 74 12.667 141.5 38 202.5s60.666 113 105.999 156s99.166 76.333 161.499 100s130.5 35.5 204.5 35.5c35.333 0 66.166 -1.16699 92.499 -3.5s50.166 -5.66602 71.499 -9.99902s41.333 -9.33301 60 -15l58 -18.5l-10 -141
c-17.333 11.333 -35 21.166 -53 29.499s-37.5 15.333 -58.5 21s-44.167 9.83398 -69.5 12.501s-53.666 4 -84.999 4c-55.333 0 -105.833 -9.5 -151.5 -28.5s-84.667 -45.333 -117 -79s-57.5 -73.5 -75.5 -119.5s-27 -96 -27 -150c0 -56.667 9.66699 -108.334 29 -155.001
s45.5 -86.5 78.5 -119.5s71.667 -58.667 116 -77s91.5 -27.5 141.5 -27.5c23.333 0 43 0.666992 59 2s29.667 2.83301 41 4.5s21 3.5 29 5.5s16 3.66699 24 5v293h-202v114h342v-501v0z" />
    <glyph glyph-name="H" unicode="H" horiz-adv-x="997" 
d="M729 0v440h-461v-440h-139v965h139v-404h461v404h139v-965h-139z" />
    <glyph glyph-name="I" unicode="I" horiz-adv-x="385" 
d="M123 0v965h139v-965h-139z" />
    <glyph glyph-name="J" unicode="J" horiz-adv-x="539" 
d="M412 248c0 -34 -4.33203 -66.8311 -12.999 -98.498s-23.334 -59.667 -44.001 -84s-48.5 -44 -83.5 -59s-78.5 -22.5 -130.5 -22.5c-22.667 0 -43.5 1.33301 -62.5 4s-35.5 6.66699 -49.5 12v119c30 -10 59.333 -15 88 -15c30.667 0 56.167 4.33301 76.5 13
s36.5 21.167 48.5 37.5s20.333 36.166 25 59.499s7 49.666 7 78.999v672h138v-717v0z" />
    <glyph glyph-name="K" unicode="K" horiz-adv-x="922" 
d="M698 0l-430 473v-473h-139v965h139v-424l412 424h184l-454 -457l489 -508h-201z" />
    <glyph glyph-name="L" unicode="L" horiz-adv-x="690" 
d="M121 0v965h139v-844h404v-121h-543z" />
    <glyph glyph-name="M" unicode="M" horiz-adv-x="1305" 
d="M1042 0v836h-2l-319 -836h-135l-320 836h-4v-836h-137v965h227l303 -801l297 801h228v-965h-138z" />
    <glyph glyph-name="N" unicode="N" horiz-adv-x="997" 
d="M700 0l-438 793h-2v-793h-139v965h188l426 -777h2v777h140v-965h-177z" />
    <glyph glyph-name="O" unicode="O" horiz-adv-x="1075" 
d="M1001 483c0 -74 -10.333 -141.5 -31 -202.5s-50.834 -113.5 -90.501 -157.5s-88.167 -78.167 -145.5 -102.5s-122.333 -36.5 -195 -36.5c-74 0 -139.833 12.167 -197.5 36.5s-106.334 58.5 -146.001 102.5s-69.834 96.5 -90.501 157.5s-31 128.5 -31 202.5
c0 71.333 10.333 137.333 31 198s50.834 113.334 90.501 158.001s88.334 79.5 146.001 104.5s123.5 37.5 197.5 37.5c72.667 0 137.667 -12.5 195 -37.5s105.833 -59.833 145.5 -104.5s69.834 -97.334 90.501 -158.001s31 -126.667 31 -198zM856 483
c0 48.667 -6.5 95.667 -19.5 141s-32.667 85.5 -59 120.5s-59.333 63 -99 84s-86.167 31.5 -139.5 31.5s-100 -10.5 -140 -31.5s-73.333 -49 -100 -84s-46.667 -75.167 -60 -120.5s-20 -92.333 -20 -141c0 -48 6.16699 -94.667 18.5 -140s31.5 -85.833 57.5 -121.5
s59.167 -64.167 99.5 -85.5s88.5 -32 144.5 -32c55.333 0 103 10.667 143 32s72.833 49.833 98.5 85.5s44.667 76.167 57 121.5s18.5 92 18.5 140z" />
    <glyph glyph-name="P" unicode="P" horiz-adv-x="768" 
d="M729 676c0 -54 -9.50098 -99.5 -28.501 -136.5s-44.333 -67 -76 -90s-68 -39.5 -109 -49.5s-83.167 -15 -126.5 -15h-135v-385h-139v965h254c48.667 0 94.834 -4.83301 138.501 -14.5s82 -25.667 115 -48s59 -52 78 -89s28.5 -82.833 28.5 -137.5zM583.999 678
c0 30 -7 55.667 -21 77s-31.667 38.5 -53 51.5s-44.5 22.5 -69.5 28.5s-48.167 9 -69.5 9h-117v-336h135c21.333 0 43.5 2.83301 66.5 8.5s44 15.167 63 28.5s34.667 30.833 47 52.5s18.5 48.5 18.5 80.5z" />
    <glyph glyph-name="Q" unicode="Q" horiz-adv-x="1075" 
d="M1001 483c0 -108.667 -22.333 -203 -67 -283s-109 -138.333 -193 -175l226 -203h-172l-181 168c-6 -1.33301 -12 -2.33301 -18 -3s-12 -1 -18 -1c-6.66699 -1.33301 -13.334 -2 -20.001 -2h-19c-74 0 -139.833 12.167 -197.5 36.5s-106.334 58.5 -146.001 102.5
s-69.834 96.5 -90.501 157.5s-31 128.5 -31 202.5c0 71.333 10.333 137.333 31 198s50.834 113.334 90.501 158.001s88.334 79.5 146.001 104.5s123.5 37.5 197.5 37.5c72.667 0 137.667 -12.5 195 -37.5s105.833 -59.833 145.5 -104.5s69.834 -97.334 90.501 -158.001
s31 -126.667 31 -198zM856 483c0 48.667 -6.5 95.667 -19.5 141s-32.667 85.5 -59 120.5s-59.333 63 -99 84s-86.167 31.5 -139.5 31.5s-100 -10.5 -140 -31.5s-73.333 -49 -100 -84s-46.667 -75.167 -60 -120.5s-20 -92.333 -20 -141c0 -48 6.16699 -94.667 18.5 -140
s31.5 -85.833 57.5 -121.5s59.167 -64.167 99.5 -85.5s88.5 -32 144.5 -32c55.333 0 103 10.667 143 32s72.833 49.833 98.5 85.5s44.667 76.167 57 121.5s18.5 92 18.5 140z" />
    <glyph glyph-name="R" unicode="R" horiz-adv-x="844" 
d="M645 0l-147.001 333.998c-10 23.333 -20.667 41.333 -32 54s-23.5 22 -36.5 28s-27.167 9.5 -42.5 10.5s-32.333 1.5 -51 1.5h-82v-428h-139v965h235c48 0 94.667 -2.83301 140 -8.5s85.333 -17.5 120 -35.5s62.5 -44.167 83.5 -78.5s31.5 -80.166 31.5 -137.499
c0 -30 -5 -57.333 -15 -82s-24 -46.5 -42 -65.5s-39.167 -34.833 -63.5 -47.5s-50.5 -21.667 -78.5 -27v-2c21.333 -8 38.833 -18.667 52.5 -32s27.834 -34.666 42.501 -63.999l182 -385h-158zM579.999 699.998c0 44 -16.5 79 -49.5 105s-81.5 39 -145.5 39h-131v-293h117
c66 0 117.333 13.333 154 40s55 63 55 109z" />
    <glyph glyph-name="S" unicode="S" horiz-adv-x="690" 
d="M627 270c0 -51.333 -9.33789 -95.001 -28.0049 -131.001s-44 -65.5 -76 -88.5s-69.5 -39.833 -112.5 -50.5s-88.5 -16 -136.5 -16c-34 0 -67.5 3.83301 -100.5 11.5s-65.5 16.834 -97.5 27.501l14 129l41.5 -15.5c15.667 -5.66699 32.334 -10.834 50.001 -15.501
s35.834 -8.66699 54.501 -12s37 -5 55 -5c19.333 0 40 3 62 9s42.333 15.333 61 28s34.167 29 46.5 49s18.5 44 18.5 72c0 36 -10.167 65.5 -30.5 88.5s-45.833 43 -76.5 60s-63.834 33.333 -99.501 49s-68.834 34.5 -99.501 56.5s-56.167 48.833 -76.5 80.5
s-30.5 72.5 -30.5 122.5c0 42.667 8 80.334 24 113.001s37.833 60 65.5 82s60.334 38.667 98.001 50s78.167 17 121.5 17c32 0 65.833 -2.66699 101.5 -8s70.167 -14.333 103.5 -27l-19 -127c-17.333 7.33301 -33 13.5 -47 18.5s-27.833 9.16699 -41.5 12.5
s-27.834 5.83301 -42.501 7.5s-31 2.5 -49 2.5c-19.333 0 -39.166 -2 -59.499 -6s-38.666 -11 -54.999 -21s-29.666 -23.333 -39.999 -40s-15.5 -37.334 -15.5 -62.001c0 -30.667 10.333 -56 31 -76s46.334 -38.167 77.001 -54.5s64 -32.666 100 -48.999
s69.333 -36.5 100 -60.5s56.334 -53.5 77.001 -88.5s31 -79.167 31 -132.5z" />
    <glyph glyph-name="T" unicode="T" horiz-adv-x="768" 
d="M453 844v-844h-138v844h-301v121h740v-121h-301z" />
    <glyph glyph-name="U" unicode="U" horiz-adv-x="997" 
d="M874 399c0 -135.333 -32.668 -238.333 -98.001 -309s-157.333 -106 -276 -106c-119.333 0 -211.666 35.333 -276.999 106s-98 173.667 -98 309v566h137v-547c0 -46.667 4 -89.334 12 -128.001s21.333 -71.667 40 -99s43.167 -48.666 73.5 -63.999s67.833 -23 112.5 -23
s82 7.66699 112 23s54.167 36.666 72.5 63.999s31.333 60.333 39 99s11.5 81.334 11.5 128.001v547h139v-566v0z" />
    <glyph glyph-name="V" unicode="V" horiz-adv-x="922" 
d="M545 0h-172l-365 965h156l297 -844h2l305 844h145z" />
    <glyph glyph-name="W" unicode="W" horiz-adv-x="1382" 
d="M1083 0h-180l-209 844h-4l-211 -844h-184l-293 965h154l229 -828h4l205 828h197l208 -828h2l232 828h147z" />
    <glyph glyph-name="X" unicode="X" horiz-adv-x="922" 
d="M737 0l-284 410l-277 -410h-166l357 502l-324 463h166l256 -371l256 371h158l-324 -461l356 -504h-174z" />
    <glyph glyph-name="Y" unicode="Y" horiz-adv-x="922" 
d="M530 403v-403h-137v403l-379 562h162l289 -433l280 433h162z" />
    <glyph glyph-name="Z" unicode="Z" horiz-adv-x="768" 
d="M45 0v125l500 719h-484v121h644v-125l-500 -719h508v-121h-668z" />
    <glyph glyph-name="bracketleft" unicode="[" horiz-adv-x="461" 
d="M131 -193v1237h262v-96h-139v-1044h139v-97h-262z" />
    <glyph glyph-name="backslash" unicode="\" horiz-adv-x="385" 
d="M297 -16l-332 997h123l332 -997h-123z" />
    <glyph glyph-name="bracketright" unicode="]" horiz-adv-x="461" 
d="M68 -193v97h139v1044h-139v96h262v-1237h-262z" />
    <glyph glyph-name="asciicircum" unicode="^" horiz-adv-x="829" 
d="M623 406l-209 432l-207 -432h-125l276 559h113l274 -559h-122z" />
    <glyph glyph-name="underscore" unicode="_" horiz-adv-x="690" 
d="M0 -172v68h690v-68h-690z" />
    <glyph glyph-name="grave" unicode="`" horiz-adv-x="385" 
d="M190 803l-180 198h150l123 -198h-93z" />
    <glyph glyph-name="a" unicode="a" horiz-adv-x="768" 
d="M543 0l-0.00195312 91.998h-2c-8 -10.667 -18.333 -22.334 -31 -35.001s-28 -24.334 -46 -35.001s-38.833 -19.667 -62.5 -27s-50.167 -11 -79.5 -11c-38 0 -72.833 4.16699 -104.5 12.5s-59 21.333 -82 39s-40.833 40.334 -53.5 68.001s-19 60.834 -19 99.501
c0 44.667 10.833 81.834 32.5 111.501s48.834 53.5 81.501 71.5s68.167 30.833 106.5 38.5s74.166 11.5 107.499 11.5c25.333 0 48.5 -0.166992 69.5 -0.5s44.167 -1.5 69.5 -3.5c0 61.333 -13 107.333 -39 138s-71.667 46 -137 46c-35.333 0 -71.5 -6.16699 -108.5 -18.5
s-68.167 -29.833 -93.5 -52.5l-9 110c33.333 19.333 69.333 35.166 108 47.499s80.667 18.5 126 18.5c50 0 92.833 -6.16699 128.5 -18.5s64.834 -30.666 87.501 -54.999s39.334 -54.666 50.001 -90.999s16 -78.5 16 -126.5v-293c0 -40 0.666992 -70.333 2 -91s3 -36 5 -46
h-123zM529.998 335.998c-14 0 -27.8301 0.331055 -41.4971 0.998047s-27.834 1 -42.501 1c-11.333 0 -25.333 -0.5 -42 -1.5s-34 -3 -52 -6s-35.833 -7.33301 -53.5 -13s-33.667 -13.5 -48 -23.5s-25.833 -22.5 -34.5 -37.5s-13 -32.833 -13 -53.5
c0 -18.667 4 -35.167 12 -49.5s18.333 -26.333 31 -36s26.667 -17 42 -22s30.666 -7.5 45.999 -7.5c32 0 60.167 4.66699 84.5 14s44.666 22.333 60.999 39s28.833 36.334 37.5 59.001s13 47.334 13 74.001v62z" />
    <glyph glyph-name="b" unicode="b" horiz-adv-x="844" 
d="M780 365c0 -48 -5.83105 -95 -17.498 -141s-29.667 -86.667 -54 -122s-55.5 -63.833 -93.5 -85.5s-83.333 -32.5 -136 -32.5c-32 0 -60.833 3.5 -86.5 10.5s-48.5 16.167 -68.5 27.5s-37.167 23.833 -51.5 37.5s-25.833 27.167 -34.5 40.5h-2v-100h-125v1036h129v-428h4
c19.333 32.667 47.666 59.667 84.999 81s86.666 32 147.999 32c51.333 0 96 -9.66699 134 -29s69.5 -45.333 94.5 -78s43.667 -70.5 56 -113.5s18.5 -88.167 18.5 -135.5zM643.002 354c0 32 -3.49902 63.6689 -10.499 95.002s-18.167 59.333 -33.5 84s-35.333 44.667 -60 60
s-54.667 23 -90 23s-66 -7.66699 -92 -23s-47.667 -35.5 -65 -60.5s-30.333 -53.333 -39 -85s-13 -64.167 -13 -97.5c0 -29.333 4 -59.5 12 -90.5s20.333 -59.167 37 -84.5s38.167 -46.166 64.5 -62.499s58.166 -24.5 95.499 -24.5c34.667 0 64.334 8.66699 89.001 26
s44.667 39.166 60 65.499s26.666 55.166 33.999 86.499s11 60.666 11 87.999z" />
    <glyph glyph-name="c" unicode="c" horiz-adv-x="614" 
d="M575 12c-28 -12 -56.334 -19.6699 -85.001 -23.0029s-54.667 -5 -78 -5c-53.333 0 -102 9.83301 -146 29.5s-81.833 46.167 -113.5 79.5s-56.167 72.333 -73.5 117s-26 92 -26 142c0 54 8.66699 103.5 26 148.5s41.666 83.833 72.999 116.5s69 58.167 113 76.5
s93 27.5 147 27.5c26.667 0 54.834 -2.66699 84.501 -8s53.834 -11.666 72.501 -18.999l-10 -108c-51.333 20 -98.333 30 -141 30c-36.667 0 -69.167 -7.5 -97.5 -22.5s-52.166 -34.667 -71.499 -59s-34 -52.333 -44 -84s-15 -64.5 -15 -98.5
c0 -31.333 4.33301 -62.666 13 -93.999s22.5 -59.666 41.5 -84.999s43.5 -45.833 73.5 -61.5s66 -23.5 108 -23.5c21.333 0 44.666 3.5 69.999 10.5s48.333 17.167 69 30.5l10 -117v0z" />
    <glyph glyph-name="d" unicode="d" horiz-adv-x="844" 
d="M610 0l0.000976562 100.001h-4c-8.66699 -13.333 -20.167 -26.833 -34.5 -40.5s-31.5 -26.167 -51.5 -37.5s-42.667 -20.5 -68 -27.5s-53.666 -10.5 -84.999 -10.5c-53.333 0 -99.166 10.833 -137.499 32.5s-69.833 50.167 -94.5 85.5s-42.834 76 -54.501 122
s-17.5 93 -17.5 141c0 47.333 6.33301 92.5 19 135.5s31.667 80.833 57 113.5s57.166 58.667 95.499 78s83.166 29 134.499 29c30.667 0 58.167 -2.83301 82.5 -8.5s46 -13.5 65 -23.5s35.5 -21.833 49.5 -35.5s26 -28.834 36 -45.501h2v428h129v-1036h-123z
M604.001 350.001c0 33.333 -4.17188 65.8311 -12.5049 97.498s-21.166 60 -38.499 85s-39.166 45.167 -65.499 60.5s-57.166 23 -92.499 23s-65.166 -7.66699 -89.499 -23s-44.166 -35.333 -59.499 -60s-26.333 -52.667 -33 -84s-10 -63 -10 -95
c0 -27.333 3.66699 -56.666 11 -87.999s18.666 -60.166 33.999 -86.499s35.333 -48.166 60 -65.499s54.334 -26 89.001 -26c36.667 0 68 8.16699 94 24.5s47.333 37.166 64 62.499s29 53.5 37 84.5s12 61.167 12 90.5z" />
    <glyph glyph-name="e" unicode="e" horiz-adv-x="768" 
d="M203 324c0 -35.333 6.33301 -67.333 19 -96s29.5 -53.5 50.5 -74.5s45.5 -37.167 73.5 -48.5s57.333 -17 88 -17c21.333 0 43.166 2.5 65.499 7.5s43.333 11.167 63 18.5s37.334 15.166 53.001 23.499s27.5 15.833 35.5 22.5v-131l-39 -15
c-14 -5.33301 -29.667 -10.166 -47 -14.499s-37.166 -8 -59.499 -11s-48.166 -4.5 -77.499 -4.5c-62.667 0 -116.834 9 -162.501 27s-83.5 43.667 -113.5 77s-52.333 73.5 -67 120.5s-22 99.167 -22 156.5c0 52 7.83301 99.833 23.5 143.5s38 81.167 67 112.5
s63.833 55.833 104.5 73.5s85.667 26.5 135 26.5c58.667 0 108 -10 148 -30s72.167 -47.833 96.5 -83.5s41.666 -77.667 51.999 -126s15.5 -100.833 15.5 -157.5h-502zM567 420c0 26.667 -3.83301 52 -11.5 76s-19 44.833 -34 62.5s-33.5 31.667 -55.5 42s-47 15.5 -75 15.5
c-32 0 -59.333 -5.83301 -82 -17.5s-41.5 -27 -56.5 -46s-26.5 -40.167 -34.5 -63.5s-13 -46.333 -15 -69h364z" />
    <glyph glyph-name="f" unicode="f" horiz-adv-x="539" 
d="M512 940c-7.33301 3.33301 -16.502 5.50098 -27.502 6.50098s-22.167 1.5 -33.5 1.5c-28 0 -50.333 -4.16699 -67 -12.5s-29.334 -20 -38.001 -35s-14.167 -32.833 -16.5 -53.5s-3.5 -43 -3.5 -67v-75h186v-105h-186v-600h-131v600h-166v105h166v65
c0 42.667 3.33301 81.5 10 116.5s18.834 64.833 36.501 89.5s41.834 43.667 72.501 57s70 20 118 20c16.667 0 31.834 -0.833008 45.501 -2.5s27.167 -3.83398 40.5 -6.50098z" />
    <glyph glyph-name="g" unicode="g" horiz-adv-x="844" 
d="M733 31c0 -54 -6.99805 -101.835 -20.998 -143.502s-35.833 -77 -65.5 -106s-67.334 -51 -113.001 -66s-99.834 -22.5 -162.501 -22.5c-19.333 0 -38 0.666992 -56 2s-37 3.83301 -57 7.5s-41.333 8.66699 -64 15s-48.334 14.5 -77.001 24.5l14 121
c24.667 -12 47.5 -22.167 68.5 -30.5s41.333 -15.166 61 -20.499s39.5 -9.16602 59.5 -11.499s41.667 -3.5 65 -3.5c34 0 64.667 5.66699 92 17s50.333 27.5 69 48.5s33 46.667 43 77s15 64.166 15 101.499v68h-2c-28 -36 -63.167 -63.167 -105.5 -81.5
s-86.166 -27.5 -131.499 -27.5c-50 0 -94 9.5 -132 28.5s-69.5 44.5 -94.5 76.5s-43.833 68.833 -56.5 110.5s-19 85.167 -19 130.5s6.5 90.333 19.5 135s32.5 84.834 58.5 120.501s58.833 64.5 98.5 86.5s86.167 33 139.5 33c62.667 0 112 -10.667 148 -32
s63.667 -51 83 -89h4v105h119v-674zM604.002 343.998c0 36.667 -4.16699 71.5 -12.5 104.5s-21.166 62 -38.499 87s-39 44.667 -65 59s-56.333 21.5 -91 21.5c-32.667 0 -61.167 -8 -85.5 -24s-44.5 -36.5 -60.5 -61.5s-28 -53.167 -36 -84.5s-12 -62 -12 -92
c0 -33.333 4.5 -65 13.5 -95s21.833 -56.5 38.5 -79.5s37 -41.333 61 -55s51 -20.5 81 -20.5c30.667 0 58.667 6.33301 84 19s47.166 30 65.499 52s32.5 47.5 42.5 76.5s15 59.833 15 92.5z" />
    <glyph glyph-name="h" unicode="h" horiz-adv-x="844" 
d="M604 0l0.000976562 365c0 82.667 -10.833 144.834 -32.5 186.501s-60.5 63.167 -116.5 64.5c-37.333 1.33301 -69.5 -5 -96.5 -19s-49.167 -33.833 -66.5 -59.5s-30.333 -56.667 -39 -93s-13 -75.833 -13 -118.5v-326h-129v1036h129v-432h4
c23.333 37.333 54.666 66.166 93.999 86.499s83 30.5 131 30.5c92 0 159 -26.667 201 -80s63 -127 63 -221v-420h-129z" />
    <glyph glyph-name="i" unicode="i" horiz-adv-x="385" 
d="M119 862v148h147v-148h-147zM127 0v705h131v-705h-131z" />
    <glyph glyph-name="j" unicode="j" horiz-adv-x="385" 
d="M119 862v148h147v-148h-147zM258 -25c0 -16.667 -0.333984 -35.333 -1.00098 -56s-3 -41.5 -7 -62.5s-10.167 -41.333 -18.5 -61s-20 -37 -35 -52s-33.833 -27.167 -56.5 -36.5s-50.334 -14 -83.001 -14c-13.333 0 -27.666 0.5 -42.999 1.5s-27.666 2.5 -36.999 4.5
l5 113c8 -2.66699 15.667 -4.16699 23 -4.5s17.333 -0.5 30 -0.5c30.667 0 53.667 13.333 69 40s23 62.667 23 108v750h131v-730z" />
    <glyph glyph-name="k" unicode="k" horiz-adv-x="768" 
d="M555 0l-315 362v-362h-129v1036h129v-616l284 285h176l-327 -312l368 -393h-186z" />
    <glyph glyph-name="l" unicode="l" horiz-adv-x="385" 
d="M127 0v1036h131v-1036h-131z" />
    <glyph glyph-name="m" unicode="m" horiz-adv-x="1229" 
d="M991 0v419.999c0 22 -1.66699 44.5 -5 67.5s-9.5 44 -18.5 63s-21.667 34.667 -38 47s-37.5 18.5 -63.5 18.5c-33.333 0 -61.666 -7.33301 -84.999 -22s-42.5 -34.334 -57.5 -59.001s-26 -52.667 -33 -84s-10.5 -63.666 -10.5 -96.999v-354h-129v420
c0 22 -1.66699 44.5 -5 67.5s-9.66602 44 -18.999 63s-22.166 34.667 -38.499 47s-37.833 18.5 -64.5 18.5c-33.333 0 -61.666 -7.33301 -84.999 -22s-42.333 -34.334 -57 -59.001s-25.334 -52.667 -32.001 -84s-10 -63.666 -10 -96.999v-354h-131v705h122v-103h2
c25.333 41.333 56 71.5 92 90.5s80 28.5 132 28.5c20.667 0 41 -2.66699 61 -8s38.833 -13.5 56.5 -24.5s33.5 -25 47.5 -42s25.667 -37.167 35 -60.5c12.667 24.667 28.167 45.667 46.5 63s37.666 31.333 57.999 42s40.666 18.334 60.999 23.001s38.5 7 54.5 7
c44.667 0 82.5 -6.83301 113.5 -20.5s56.167 -32.5 75.5 -56.5s33.166 -52.333 41.499 -85s12.5 -68 12.5 -106v-453h-129z" />
    <glyph glyph-name="n" unicode="n" horiz-adv-x="844" 
d="M604 0v364.999c0 82.667 -10.833 144.834 -32.5 186.501s-60.5 63.167 -116.5 64.5c-37.333 1.33301 -69.5 -5 -96.5 -19s-49.167 -33.833 -66.5 -59.5s-30.333 -56.667 -39 -93s-13 -75.833 -13 -118.5v-326h-129v705h125v-111h4c10 20 23 37.833 39 53.5s34 29 54 40
s41.667 19.333 65 25s47 8.5 71 8.5c92 0 159 -26.667 201 -80s63 -127 63 -221v-420h-129z" />
    <glyph glyph-name="o" unicode="o" horiz-adv-x="844" 
d="M780 352c0 -50 -8.66602 -97.333 -25.999 -142s-41.666 -83.667 -72.999 -117s-68.833 -59.833 -112.5 -79.5s-91.834 -29.5 -144.501 -29.5c-53.333 0 -102.166 9.83301 -146.499 29.5s-82.333 46.167 -114 79.5s-56.334 72.333 -74.001 117s-26.5 92 -26.5 142
c0 54 8.66699 103.5 26 148.5s41.666 83.833 72.999 116.5s69.333 58.167 114 76.5s94 27.5 148 27.5c53.333 0 101.833 -9.16699 145.5 -27.5s81.167 -43.833 112.5 -76.5s55.5 -71.5 72.5 -116.5s25.5 -94.5 25.5 -148.5zM643.001 352c0 34 -5.00195 66.833 -15.002 98.5
s-24.333 59.667 -43 84s-41.667 44 -69 59s-58 22.5 -92 22.5c-35.333 0 -66.666 -7.5 -93.999 -22.5s-50.5 -34.667 -69.5 -59s-33.333 -52.333 -43 -84s-14.5 -64.5 -14.5 -98.5c0 -31.333 4.33301 -62.666 13 -93.999s22 -59.666 40 -84.999s40.833 -45.833 68.5 -61.5
s60.834 -23.5 99.501 -23.5c38 0 70.667 7.83301 98 23.5s50 36.167 68 61.5s31.333 53.666 40 84.999s13 62.666 13 93.999z" />
    <glyph glyph-name="p" unicode="p" horiz-adv-x="844" 
d="M780 365c0 -48 -5.83398 -95.001 -17.501 -141.001s-29.667 -86.667 -54 -122s-55.5 -63.833 -93.5 -85.5s-83.333 -32.5 -136 -32.5c-62.667 0 -112.667 10.833 -150 32.5s-65.666 48.167 -84.999 79.5h-4v-387h-129v996h125v-99h2c8.66699 12.667 20 25.834 34 39.501
s31 26 51 37s42.833 20.167 68.5 27.5s54.167 11 85.5 11c51.333 0 96 -9.66699 134 -29s69.5 -45.333 94.5 -78s43.667 -70.5 56 -113.5s18.5 -88.167 18.5 -135.5zM642.999 353.999c0 32 -3.49902 63.6689 -10.499 95.002s-18.167 59.333 -33.5 84s-35.333 44.667 -60 60
s-54.667 23 -90 23s-66 -7.66699 -92 -23s-47.667 -35.5 -65 -60.5s-30.333 -53.333 -39 -85s-13 -64.167 -13 -97.5c0 -29.333 4 -59.5 12 -90.5s20.333 -59.167 37 -84.5s38.167 -46.166 64.5 -62.499s58.166 -24.5 95.499 -24.5c34.667 0 64.334 8.66699 89.001 26
s44.667 39.166 60 65.499s26.666 55.166 33.999 86.499s11 60.666 11 87.999z" />
    <glyph glyph-name="q" unicode="q" horiz-adv-x="844" 
d="M604 -291l0.000976562 383h-2c-20.667 -32.667 -52.167 -58.834 -94.5 -78.501s-89.166 -29.5 -140.499 -29.5c-53.333 0 -99.166 10.833 -137.499 32.5s-69.833 50.167 -94.5 85.5s-42.834 76 -54.501 122s-17.5 93 -17.5 141c0 47.333 6.33301 92.5 19 135.5
s31.667 80.833 57 113.5s57.166 58.667 95.499 78s83.166 29 134.499 29c30.667 0 58.667 -3.66699 84 -11s47.833 -16.666 67.5 -27.999s36.667 -23.833 51 -37.5s25.833 -27.167 34.5 -40.5h4v101h123v-996h-129zM604.001 350c0 33.333 -4.17188 65.8311 -12.5049 97.498
s-21.166 60 -38.499 85s-39.166 45.167 -65.499 60.5s-57.166 23 -92.499 23s-65.166 -7.66699 -89.499 -23s-44.166 -35.333 -59.499 -60s-26.333 -52.667 -33 -84s-10 -63 -10 -95c0 -27.333 3.66699 -56.666 11 -87.999s18.666 -60.166 33.999 -86.499
s35.333 -48.166 60 -65.499s54.334 -26 89.001 -26c36.667 0 68 8.16699 94 24.5s47.333 37.166 64 62.499s29 53.5 37 84.5s12 61.167 12 90.5z" />
    <glyph glyph-name="r" unicode="r" horiz-adv-x="539" 
d="M504 596c-11.333 5.33301 -23.3301 8.66699 -35.9971 10s-24.667 2 -36 2c-28.667 0 -54.834 -6.66699 -78.501 -20s-43.834 -32.333 -60.501 -57s-29.667 -54.667 -39 -90s-14 -75 -14 -119v-322h-129v705h120v-109h5c8.66699 18.667 19.5 35.667 32.5 51
s27.5 28.5 43.5 39.5s33.167 19.5 51.5 25.5s37.166 9 56.499 9c18.667 0 34 -0.833008 46 -2.5l38 -5.5v-117v0z" />
    <glyph glyph-name="s" unicode="s" horiz-adv-x="539" 
d="M492 203c0 -37.333 -7.00195 -69.833 -21.002 -97.5s-32.5 -50.5 -55.5 -68.5s-49.333 -31.333 -79 -40s-60.5 -13 -92.5 -13c-33.333 0 -66.333 2.33301 -99 7s-64 15.334 -94 32.001l6 114c12.667 -8 26.667 -15.167 42 -21.5s30.333 -11.5 45 -15.5s28.5 -7 41.5 -9
s24.167 -3 33.5 -3c14.667 0 30 1.66699 46 5s30.333 9 43 17s23.167 18.333 31.5 31s12.5 28.334 12.5 47.001c0 21.333 -7.5 39.5 -22.5 54.5s-33.833 28.667 -56.5 41s-47.167 24.666 -73.5 36.999s-50.833 26.666 -73.5 42.999s-41.5 35.666 -56.5 57.999
s-22.5 49.833 -22.5 82.5c0 36.667 6.33301 68.667 19 96s30.167 50 52.5 68s48.666 31.333 78.999 40s62.833 13 97.5 13c30.667 0 59 -2.66699 85 -8s51.667 -11.666 77 -18.999l-11 -114c-7.33301 4.66699 -17 9.16699 -29 13.5s-24.833 8.16602 -38.5 11.499
s-26.667 6 -39 8s-22.5 3 -30.5 3c-16 0 -31.667 -1.66699 -47 -5s-28.666 -8.5 -39.999 -15.5s-20.5 -16 -27.5 -27s-10.5 -23.833 -10.5 -38.5c0 -24 7.66699 -43.5 23 -58.5s34.333 -28.333 57 -40s47.334 -23.167 74.001 -34.5s51.334 -25 74.001 -41
s41.667 -36.167 57 -60.5s23 -55.166 23 -92.499z" />
    <glyph glyph-name="t" unicode="t" horiz-adv-x="539" 
d="M496 2c-14.667 -4 -31.499 -8.00098 -50.499 -12.001s-39.167 -6 -60.5 -6c-66.667 0 -119.5 16.333 -158.5 49s-58.5 84.334 -58.5 155.001v412h-158v105h158v163l131 41v-204h186v-105h-186v-385c0 -41.333 10.667 -72.833 32 -94.5s47 -32.5 77 -32.5
c20.667 0 38.167 2.5 52.5 7.5s26.166 10.833 35.499 17.5v-111v0z" />
    <glyph glyph-name="u" unicode="u" horiz-adv-x="844" 
d="M608 0l-0.000976562 113.001h-2c-10 -20 -23 -38 -39 -54s-34.167 -29.5 -54.5 -40.5s-42.166 -19.5 -65.499 -25.5s-47.333 -9 -72 -9c-91.333 0 -158.166 26.667 -200.499 80s-63.5 127.666 -63.5 222.999v418h129v-365c0 -41.333 2.5 -77.5 7.5 -108.5
s13.167 -57 24.5 -78s26.666 -37 45.999 -48s43 -16.833 71 -17.5c37.333 -1.33301 69.5 5.16699 96.5 19.5s49.333 34.333 67 60s30.667 56.5 39 92.5s12.5 75.667 12.5 119v326h129v-705h-125z" />
    <glyph glyph-name="v" unicode="v" horiz-adv-x="690" 
d="M424 0h-156l-254 705h144l190 -576h2l197 576h129z" />
    <glyph glyph-name="w" unicode="w" horiz-adv-x="1151" 
d="M907 0h-149l-183 592h-4l-178 -592h-149l-228 705h144l162 -584h2l180 584h153l177 -584h2l172 584h127z" />
    <glyph glyph-name="x" unicode="x" horiz-adv-x="690" 
d="M516 0l-174 276l-174 -276h-154l254 369l-229 336h162l153 -252l156 252h145l-227 -336l250 -369h-162z" />
    <glyph glyph-name="y" unicode="y" horiz-adv-x="690" 
d="M410 -14l-39.498 -104c-13.667 -34.667 -30.667 -66 -51 -94s-45.166 -50.833 -74.499 -68.5s-65.333 -26.5 -108 -26.5c-20.667 0 -37.334 1.16699 -50.001 3.5s-25.334 4.5 -38.001 6.5l8 107c8.66699 -3.33301 18.334 -6.33301 29.001 -9s21.667 -4 33 -4
c19.333 0 36.666 4 51.999 12s28.666 18.167 39.999 30.5s21 25.833 29 40.5s14.5 28.5 19.5 41.5s8.66699 24.167 11 33.5s3.5 15.333 3.5 18c0 4 -1 8.83301 -3 14.5l-7 19c-2.66699 7 -5.5 14 -8.5 21s-5.5 13.5 -7.5 19.5l-238 658h142l190 -584h2l195 584h131z" />
    <glyph glyph-name="z" unicode="z" horiz-adv-x="690" 
d="M59 0v113l406 487h-387v105h538v-113l-405 -488h420v-104h-572z" />
    <glyph glyph-name="braceleft" unicode="{" horiz-adv-x="461" 
d="M326 -193c-16.667 0 -34.167 3.66797 -52.5 11.001s-35.166 18.333 -50.499 33s-28 33 -38 55s-15 47.333 -15 76v249c0 24 -3.66699 45 -11 63s-16.666 33.167 -27.999 45.5s-24 21.666 -38 27.999s-28 9.5 -42 9.5v98c14 0 28 3 42 9s26.667 14.833 38 26.5
s20.666 26 27.999 43s11 36.5 11 58.5v258c0 28.667 5 53.834 15 75.501s22.667 39.834 38 54.501s32.166 25.667 50.499 33s35.833 11 52.5 11h108v-96h-74c-14 0 -25.5 -3 -34.5 -9s-16 -14 -21 -24s-8.5 -21.167 -10.5 -33.5s-3 -24.833 -3 -37.5v-250
c0 -30.667 -4.83301 -56.334 -14.5 -77.001s-21.334 -37.334 -35.001 -50.001s-27.667 -22 -42 -28s-26.166 -9.66699 -35.499 -11v-4c9.33301 -1.33301 21.166 -4.5 35.499 -9.5s28.333 -13.833 42 -26.5s25.334 -29.667 35.001 -51s14.5 -49 14.5 -83v-246
c0 -12.667 1 -25.167 3 -37.5s5.5 -23.5 10.5 -33.5s12 -18 21 -24s20.5 -9 34.5 -9h74v-97h-108z" />
    <glyph glyph-name="bar" unicode="|" horiz-adv-x="307" 
d="M92 -346v1382h123v-1382h-123z" />
    <glyph glyph-name="braceright" unicode="}" horiz-adv-x="461" 
d="M410 377c-14 0 -28 -3.16699 -42 -9.5s-26.833 -15.333 -38.5 -27s-21 -26 -28 -43s-10.5 -36.167 -10.5 -57.5v-258c0 -28.667 -5 -54 -15 -76s-22.833 -40.333 -38.5 -55s-32.834 -25.667 -51.501 -33s-36.334 -11 -53.001 -11h-106v97h73c14 0 25.333 3 34 9
s15.5 14 20.5 24s8.5 21.167 10.5 33.5s3 24.833 3 37.5v250c0 30.667 5 56.334 15 77.001s21.833 37.334 35.5 50.001s27.667 22 42 28s25.833 9.66699 34.5 11v4c-8.66699 0.666992 -20.167 3.66699 -34.5 9s-28.333 14.333 -42 27s-25.5 29.667 -35.5 51s-15 49 -15 83
v246c0 12.667 -1 25.167 -3 37.5s-5.5 23.5 -10.5 33.5s-11.833 18 -20.5 24s-20 9 -34 9h-73v96h106c16.667 0 34.334 -3.66699 53.001 -11s35.834 -18.333 51.501 -33s28.5 -32.834 38.5 -54.501s15 -46.834 15 -75.501v-252c0 -23.333 3.5 -44 10.5 -62
s16.333 -33 28 -45s24.5 -21 38.5 -27s28 -9 42 -9v-98v0z" />
    <glyph glyph-name="asciitilde" unicode="~" horiz-adv-x="829" 
d="M733 365c-7.33301 -15.333 -15.999 -29.999 -25.999 -43.999s-22 -26.667 -36 -38s-30.167 -20.333 -48.5 -27s-38.833 -10 -61.5 -10c-23.333 0 -48 4.33301 -74 13s-52.333 18.667 -79 30l-76.5 34c-25 11.333 -46.833 17 -65.5 17c-14 0 -26.667 -3 -38 -9
s-21.833 -13.833 -31.5 -23.5s-18.667 -20.334 -27 -32.001l-24.5 -35.5l-49 96c7.33301 14 16 28 26 42s22 26.5 36 37.5s30 20 48 27s38.667 10.5 62 10.5s48.166 -4.33301 74.499 -13s52.833 -18.667 79.5 -30l75 -34.5c24.667 -11.667 46.667 -17.5 66 -17.5
c14 0 26.667 3 38 9s21.833 14 31.5 24s18.667 21.167 27 33.5l24.5 36.5l49 -96v0z" />
    <glyph glyph-name="currency" unicode="&#xa4;" horiz-adv-x="840" 
d="M422 729c-64 0 -117.334 -22.332 -160.001 -66.999c-43.333 -48.667 -65 -102 -65 -160c0 -62.667 21 -117.334 63 -164.001c43.333 -45.333 97.333 -68 162 -68c61.333 0 114 22.667 158 68c42 42 63 96.667 63 164c0 30.667 -5.5 59.667 -16.5 87
s-26.167 51.333 -45.5 72s-42.666 37.167 -69.999 49.5s-57 18.5 -89 18.5zM7.99902 164.001l147.998 145.002c-41.333 55.333 -62 119.666 -62 192.999c0 76 20.667 138.667 62 188l-148 150l76 71l145 -145c52.667 39.333 117 59 193 59
c36.667 0 71.834 -5.33301 105.501 -16s61.167 -25 82.5 -43l150 145l71 -71l-145 -150c39.333 -52.667 59 -115.334 59 -188.001c0 -76 -19.667 -140.333 -59 -193l145 -145l-71 -76l-150 148c-10 -8.66699 -22 -16.5 -36 -23.5s-29.667 -13.833 -47 -20.5
c-35.333 -12 -70.333 -18 -105 -18c-73.333 0 -137.666 20.667 -192.999 62l-145 -148z" />
    <glyph glyph-name="FL00A9h" unicode="&#xa9;" horiz-adv-x="1106" 
d="M1053 483c0 -69.333 -13.167 -134.166 -39.5 -194.499s-62.166 -113.166 -107.499 -158.499s-98.333 -81 -159 -107s-125.334 -39 -194.001 -39s-133.334 13 -194.001 39s-113.667 61.667 -159 107s-81.166 98.166 -107.499 158.499s-39.5 125.166 -39.5 194.499
c0 68.667 13.167 133.334 39.5 194.001s62.166 113.5 107.499 158.5s98.333 80.5 159 106.5s125.334 39 194.001 39s133.334 -13 194.001 -39s113.667 -61.5 159 -106.5s81.166 -97.833 107.499 -158.5s39.5 -125.334 39.5 -194.001zM930 483
c0 58.667 -9.83301 112.5 -29.5 161.5s-46.5 91.333 -80.5 127s-74 63.5 -120 83.5s-95 30 -147 30s-101 -10 -147 -30s-86 -47.833 -120 -83.5s-60.833 -78 -80.5 -127s-29.5 -102.833 -29.5 -161.5s9.83301 -112.667 29.5 -162s46.5 -91.833 80.5 -127.5
s74 -63.5 120 -83.5s95 -30 147 -30s101 10 147 30s86 47.833 120 83.5s60.833 78.167 80.5 127.5s29.5 103.333 29.5 162zM805 393c-6 -34 -16.3389 -64.1611 -31.0059 -90.4941s-32.667 -48.833 -54 -67.5s-45.166 -32.834 -71.499 -42.501s-54.166 -14.5 -83.499 -14.5
c-43.333 0 -82.333 7.66699 -117 23s-64.167 36.666 -88.5 63.999s-43.166 59.666 -56.499 96.999s-20 77.666 -20 120.999c0 42.667 6.16699 82.5 18.5 119.5s30.5 68.833 54.5 95.5s53.167 47.667 87.5 63s73.5 23 117.5 23c30 0 58.833 -4.5 86.5 -13.5
s52.334 -22.333 74.001 -40s39.834 -39.5 54.501 -65.5s24.334 -56 29.001 -90h-100c-7.33301 35.333 -23.833 62.666 -49.5 81.999s-56.5 29 -92.5 29c-29.333 0 -55 -5 -77 -15s-40.333 -24 -55 -42s-25.667 -39.333 -33 -64s-11 -51.334 -11 -80.001
c0 -30 4 -57.833 12 -83.5s19.667 -48 35 -67s34 -33.833 56 -44.5s47 -16 75 -16c38 0 69.5 10.5 94.5 31.5s40.167 50.167 45.5 87.5h100z" />
    <glyph glyph-name="guillemotleft" unicode="&#xab;" horiz-adv-x="768" 
d="M547 92l-197 281l197 278h123l-181 -278l181 -281h-123zM268 92l-198 281l198 278h121l-178 -278l178 -281h-121z" />
    <glyph glyph-name="logicalnot" unicode="&#xac;" horiz-adv-x="768" 
d="M630 119v178h-584v90h666v-268h-82z" />
    <glyph glyph-name="minus" unicode="&#xad;" horiz-adv-x="829" 
d="M66 289v121h698v-121h-698z" />
    <glyph glyph-name="registered" unicode="&#xae;" horiz-adv-x="1106" 
d="M1053 483c0 -69.333 -13.167 -134.166 -39.5 -194.499s-62.166 -113.166 -107.499 -158.499s-98.333 -81 -159 -107s-125.334 -39 -194.001 -39s-133.334 13 -194.001 39s-113.667 61.667 -159 107s-81.166 98.166 -107.499 158.499s-39.5 125.166 -39.5 194.499
c0 68.667 13.167 133.334 39.5 194.001s62.166 113.5 107.499 158.5s98.333 80.5 159 106.5s125.334 39 194.001 39s133.334 -13 194.001 -39s113.667 -61.5 159 -106.5s81.166 -97.833 107.499 -158.5s39.5 -125.334 39.5 -194.001zM930 483
c0 58.667 -9.83301 112.5 -29.5 161.5s-46.5 91.333 -80.5 127s-74 63.5 -120 83.5s-95 30 -147 30s-101 -10 -147 -30s-86 -47.833 -120 -83.5s-60.833 -78 -80.5 -127s-29.5 -102.833 -29.5 -161.5s9.83301 -112.667 29.5 -162s46.5 -91.833 80.5 -127.5
s74 -63.5 120 -83.5s95 -30 147 -30s101 10 147 30s86 47.833 120 83.5s60.833 78.167 80.5 127.5s29.5 103.333 29.5 162zM676 203l-146 240.999h-65v-241h-105v565h211c68 0 119.833 -12.833 155.5 -38.5s53.5 -68.167 53.5 -127.5c0 -49.333 -13 -86.166 -39 -110.499
s-62.667 -38.5 -110 -42.5l153 -246h-108zM674 609.999c0 16.667 -3.33203 30 -9.99902 40s-15.5 17.667 -26.5 23s-23.333 8.83301 -37 10.5s-27.5 2.5 -41.5 2.5h-94v-162h94c15.333 0 30 1 44 3s26.167 6 36.5 12s18.666 14.667 24.999 26s9.5 26.333 9.5 45z" />
    <glyph glyph-name="degree" unicode="&#xb0;" horiz-adv-x="541" 
d="M266 915c28.667 0 55.5 -5.33398 80.5 -16.001s46.667 -25 65 -43s32.833 -39.333 43.5 -64s16 -51 16 -79s-5.33301 -54.333 -16 -79s-25.167 -46.167 -43.5 -64.5s-40 -32.833 -65 -43.5s-51.833 -16 -80.5 -16c-27.333 0 -53 5.16699 -77 15.5
s-45.167 24.666 -63.5 42.999s-32.833 39.833 -43.5 64.5s-16 51.334 -16 80.001c0 26.667 5.16699 52.334 15.5 77.001s24.5 46.167 42.5 64.5s39.167 33 63.5 44s50.5 16.5 78.5 16.5zM266 857.999c-20.667 0 -39.833 -3.66602 -57.5 -10.999s-33 -17.5 -46 -30.5
s-23.167 -28.333 -30.5 -46s-11 -36.834 -11 -57.501c0 -20 3.83301 -39 11.5 -57s18 -33.667 31 -47s28.333 -24 46 -32s36.5 -12 56.5 -12c40.667 0 75.667 14.333 105 43c30 30.667 45 65.667 45 105c0 20 -4 38.833 -12 56.5s-18.833 33 -32.5 46s-29.5 23.333 -47.5 31
s-37.333 11.5 -58 11.5z" />
    <glyph glyph-name="paragraph" unicode="&#xb6;" horiz-adv-x="727" 
d="M629 -244l-62 0.000976562v1356h-145v-1356h-55v805c-112 0 -199.667 20.667 -263 62c-69.333 49.333 -104 127.666 -104 234.999c-0 102 31.333 178.333 94 229c60 44 142.667 66 248 66h389v-41h-102v-1356z" />
    <glyph glyph-name="periodcentered" unicode="&#xb7;" horiz-adv-x="338" 
d="M170 520c20.667 0 37.832 -7.16699 51.499 -21.5s20.5 -30.833 20.5 -49.5c0 -20.667 -7.16699 -38.167 -21.5 -52.5s-31.166 -21.5 -50.499 -21.5c-22 0 -39.833 6.83301 -53.5 20.5s-20.5 31.5 -20.5 53.5c0 20 6.83301 36.833 20.5 50.5s31.5 20.5 53.5 20.5z" />
    <glyph glyph-name="periodcentered" unicode="&#x2219;" horiz-adv-x="338" 
d="M170 520c20.667 0 37.832 -7.16699 51.499 -21.5s20.5 -30.833 20.5 -49.5c0 -20.667 -7.16699 -38.167 -21.5 -52.5s-31.166 -21.5 -50.499 -21.5c-22 0 -39.833 6.83301 -53.5 20.5s-20.5 31.5 -20.5 53.5c0 20 6.83301 36.833 20.5 50.5s31.5 20.5 53.5 20.5z" />
    <glyph glyph-name="guillemotright" unicode="&#xbb;" horiz-adv-x="768" 
d="M500 92h-121l180 281l-180 278h121l198 -278zM221 92h-121l179 281l-179 278h121l199 -278z" />
    <glyph glyph-name="multiply" unicode="&#xd7;" horiz-adv-x="829" 
d="M649 29l-235 237l-234 -237l-86 86l236 235l-236 236l86 84l234 -236l235 236l86 -84l-235 -236l235 -235z" />
    <glyph glyph-name="divide" unicode="&#xf7;" horiz-adv-x="829" 
d="M520 635c0 -12.667 -2.83691 -25.334 -8.50391 -38.001s-13.167 -24 -22.5 -34s-20.166 -18 -32.499 -24s-25.166 -9 -38.499 -9c-15.333 0 -29.5 2.83301 -42.5 8.5s-24.5 13.334 -34.5 23.001s-17.833 20.834 -23.5 33.501s-8.5 26 -8.5 40
c0 14.667 2.83301 28.5 8.5 41.5s13.334 24.167 23.001 33.5s21 16.833 34 22.5s26.833 8.5 41.5 8.5c14 0 27.167 -2.83301 39.5 -8.5s23.333 -13.334 33 -23.001s17.334 -21 23.001 -34s8.5 -26.5 8.5 -40.5zM65.9961 289v121h698v-121h-698zM519.996 63
c0 -13.333 -2.83691 -26.334 -8.50391 -39.001s-13.167 -24 -22.5 -34s-20.166 -18 -32.499 -24s-25.166 -9 -38.499 -9c-15.333 0 -29.5 2.83301 -42.5 8.5s-24.5 13.334 -34.5 23.001s-17.833 21 -23.5 34s-8.5 26.5 -8.5 40.5c0 14.667 2.83301 28.334 8.5 41.001
s13.334 23.667 23.001 33s21 16.833 34 22.5s26.833 8.5 41.5 8.5c14 0 27.167 -2.83301 39.5 -8.5s23.333 -13.167 33 -22.5s17.334 -20.333 23.001 -33s8.5 -26.334 8.5 -41.001z" />
    <glyph glyph-name="uni0E00" unicode="&#xe00;" horiz-adv-x="205" 
 />
    <glyph glyph-name="uni0E01" unicode="&#xe01;" horiz-adv-x="817" 
d="M612 0l-0.000976562 535c0 33.333 -5.66699 62 -17 86s-26.5 43.667 -45.5 59s-41 26.666 -66 33.999s-50.833 11 -77.5 11s-52.167 -3.66699 -76.5 -11s-45.666 -18.666 -63.999 -33.999s-33 -35 -44 -59s-16.5 -52.667 -16.5 -86v-535h-133v559
c0 34.667 7 68.667 21 102s35 63 63 89s62.833 46.833 104.5 62.5s90.167 23.5 145.5 23.5c56 0 105 -7.83301 147 -23.5s77.333 -36.334 106 -62.001s50.167 -55.167 64.5 -88.5s21.5 -67.666 21.5 -102.999v-559h-133z" />
    <glyph glyph-name="uni0E02" unicode="&#xe02;" horiz-adv-x="758" 
d="M686 244c0 -82.667 -26.1689 -146.667 -78.502 -192s-128.5 -68 -228.5 -68c-99.333 0 -175.333 22.667 -228 68s-79 109.333 -79 192v225c0 32.667 6.83301 58.167 20.5 76.5s28.667 33.5 45 45.5l45 33c13.667 10 20.5 23.333 20.5 40
c0 22.667 -9.33301 37.167 -28 43.5s-43 9.5 -73 9.5h-30v102h100c22 0 42.833 -1.83301 62.5 -5.5s37 -10.334 52 -20.001s27 -22.667 36 -39s14.167 -37.166 15.5 -62.499s-1.16699 -46.166 -7.5 -62.499s-14.5 -30.333 -24.5 -42s-20.833 -21.834 -32.5 -30.501
s-22.5 -17.667 -32.5 -27s-18.5 -20 -25.5 -32s-10.5 -27 -10.5 -45v-195c0 -32.667 5.16699 -59.667 15.5 -81s23.833 -38.166 40.5 -50.499s35.334 -20.833 56.001 -25.5s41.334 -7 62.001 -7c21.333 0 42.5 2.33301 63.5 7s39.667 13.167 56 25.5
s29.5 29.166 39.5 50.499s15 48.333 15 81v561h133v-575v0z" />
    <glyph glyph-name="uni0E03" unicode="&#xe03;" horiz-adv-x="758" 
d="M686 244c0 -82.667 -26.1689 -146.668 -78.502 -192.001s-128.5 -68 -228.5 -68c-99.333 0 -175.333 22.667 -228 68s-79 109.333 -79 192v258c0 31.333 6.5 55.333 19.5 72s27.333 30.834 43 42.501s30 23 43 34s19.5 26.167 19.5 45.5v4h-146v119h74l57 -41l60 41h88
v-96c0 -26.667 -3.16699 -48.334 -9.5 -65.001s-14 -30.667 -23 -42s-19 -21.166 -30 -29.499s-21 -17.333 -30 -27s-16.667 -21 -23 -34s-9.5 -29.833 -9.5 -50.5v-217c0 -32.667 5.16699 -59.667 15.5 -81s23.833 -38.166 40.5 -50.499s35.334 -20.833 56.001 -25.5
s41.334 -7 62.001 -7c21.333 0 42.5 2.33301 63.5 7s39.667 13.167 56 25.5s29.5 29.166 39.5 50.499s15 48.333 15 81v561h133v-575v0z" />
    <glyph glyph-name="uni0E04" unicode="&#xe04;" horiz-adv-x="817" 
d="M612 0l-0.000976562 547c0 32 -5.83301 59.167 -17.5 81.5s-27 40.666 -46 54.999s-40.833 24.833 -65.5 31.5s-49.667 10 -75 10s-50.166 -3.33301 -74.499 -10s-46 -17.167 -65 -31.5s-34.333 -32.666 -46 -54.999s-17.5 -49.5 -17.5 -81.5v-88h192v-119h-192v-340
h-133v565c0 35.333 7.16699 69.333 21.5 102s35.5 61.5 63.5 86.5s63 45 105 60s90.667 22.5 146 22.5c56 0 105 -7.5 147 -22.5s77 -35 105 -60s49.167 -53.833 63.5 -86.5s21.5 -66.667 21.5 -102v-565h-133z" />
    <glyph glyph-name="uni0E05" unicode="&#xe05;" horiz-adv-x="817" 
d="M612 0v600c0 28.667 -7 51.834 -21 69.501s-30.667 30.834 -50 39.501l-133 -99l-132 99c-19.333 -8.66699 -36 -21.834 -50 -39.501s-21 -40.834 -21 -69.501v-141h192v-119h-192v-340h-133v604c0 32.667 6 62.334 18 89.001s28 49.667 48 69s43.167 35.333 69.5 48
s53.5 21.334 81.5 26.001l119 -93l120 93c28 -4.66699 55.167 -13.334 81.5 -26.001s49.5 -28.667 69.5 -48s36 -42.333 48 -69s18 -56.334 18 -89.001v-604h-133z" />
    <glyph glyph-name="uni0E06" unicode="&#xe06;" horiz-adv-x="817" 
d="M745 256c0 -34.667 -5.16699 -68.1709 -15.5 -100.504s-26 -60.833 -47 -85.5s-47.833 -44.5 -80.5 -59.5s-71 -22.5 -115 -22.5c-59.333 0 -112.166 10 -158.499 30s-87.5 51 -123.5 93v-111h-133v502c0 31.333 6.5 55.333 19.5 72s27.333 30.834 43 42.501s30 23 43 34
s19.5 26.167 19.5 45.5v4h-146v119h74l57 -41l60 41h88v-96c0 -26.667 -3.16699 -48.334 -9.5 -65.001s-14 -30.667 -23 -42s-19 -21.166 -30 -29.499s-21 -17.333 -30 -27s-16.667 -21 -23 -34s-9.5 -29.833 -9.5 -50.5v-166c0 -25.333 5.66699 -51.166 17 -77.499
s27.166 -50.166 47.499 -71.499s44.5 -39 72.5 -53s58.667 -21 92 -21c58 0 102.167 17.833 132.5 53.5s45.5 84.834 45.5 147.501v532h133v-563v0z" />
    <glyph glyph-name="uni0E07" unicode="&#xe07;" horiz-adv-x="760" 
d="M709 444c0 -144 -22.668 -254 -68.001 -330s-113.666 -114 -204.999 -114h-286l-119 819h141l102 -708h115c20 0 41 3.83301 63 11.5s42 23.334 60 47.001s33 57 45 100s18 99.833 18 170.5c0 52 -5.5 95.167 -16.5 129.5s-25.833 61.666 -44.5 81.999
s-40.5 34.333 -65.5 42s-51.5 10.5 -79.5 8.5v117h65c50 0 92.333 -9.66699 127 -29s63 -46 85 -80s38 -73.833 48 -119.5s15 -94.5 15 -146.5z" />
    <glyph glyph-name="uni0E08" unicode="&#xe08;" horiz-adv-x="756" 
d="M705 430c-1.33301 -68 -9.00098 -128.665 -23.001 -181.998s-33.833 -98.333 -59.5 -135s-57.334 -64.667 -95.001 -84s-80.5 -29 -128.5 -29h-245l-41 330c-3.33301 24.667 -8.83301 42.334 -16.5 53.001s-22.167 16 -43.5 16h-22v107h121
c23.333 0 41.833 -6.83301 55.5 -20.5s22.167 -30.834 25.5 -51.501l41 -323h95c21.333 0 43.833 5.33301 67.5 16s45.5 28.5 65.5 53.5s36.5 57.833 49.5 98.5s19.5 91 19.5 151c0 52 -6 96.5 -18 133.5s-28.5 67.5 -49.5 91.5s-45.5 41.667 -73.5 53s-58 17 -90 17
c-46 0 -84.667 -11.167 -116 -33.5s-52.666 -51.5 -63.999 -87.5h-144c6 31.333 17.833 61 35.5 89s40.834 52.667 69.501 74s62.334 38.166 101.001 50.499s82.667 18.5 132 18.5c60 0 112.167 -10.167 156.5 -30.5s81.166 -48.5 110.499 -84.5s50.833 -78.833 64.5 -128.5
s20.167 -103.834 19.5 -162.501z" />
    <glyph glyph-name="uni0E09" unicode="&#xe09;" horiz-adv-x="801" 
d="M596 0l-0.00390625 111.004c-36 -42 -75.5 -73 -118.5 -93s-94.167 -30 -153.5 -30c-44 0 -81.667 6.16699 -113 18.5s-57 29.5 -77 51.5s-34.667 48.333 -44 79s-14 64.334 -14 101.001v114c0 16.667 -2.16699 28.667 -6.5 36s-13.166 11 -26.499 11h-12v107h102
c23.333 0 41.833 -7.16699 55.5 -21.5s20.5 -31.833 20.5 -52.5v-164c0 -62.667 13.333 -108.667 40 -138s69.334 -44 128.001 -44c33.333 0 63.5 7 90.5 21s50 31.667 69 53s33.667 45.166 44 71.499s15.5 52.166 15.5 77.499v217c0 36 -5.66699 66.667 -17 92
s-26.833 46.166 -46.5 62.499s-42.5 28.166 -68.5 35.499s-53.667 11 -83 11c-22 0 -43.833 -2.33301 -65.5 -7s-41.834 -11.834 -60.501 -21.501s-34.667 -22.334 -48 -38.001s-23 -34.5 -29 -56.5h-141c6.66699 36.667 19.834 69.334 39.501 98.001s44.834 53 75.501 73
s65.834 35.167 105.501 45.5s82.834 15.5 129.501 15.5c52.667 0 100.167 -7 142.5 -21s78.166 -33.167 107.499 -57.5s52 -53.333 68 -87s24 -70.167 24 -109.5v-561h-133z" />
    <glyph glyph-name="uni0E0A" unicode="&#xe0a;" horiz-adv-x="750" 
d="M698 295c0 -52 -8.16992 -96.835 -24.5029 -134.502s-39.166 -68.834 -68.499 -93.501s-64 -42.834 -104 -54.501s-83.333 -17.167 -130 -16.5l-299 4v819h133v-713h112c31.333 0 61.5 2.83301 90.5 8.5s54.5 16.334 76.5 32.001s39.667 36.834 53 63.501s20 61 20 103
c0 34 -4.83301 64.167 -14.5 90.5s-23 48.333 -40 66s-37.5 31.167 -61.5 40.5s-50.333 14 -79 14v97c25.333 0 50 3.5 74 10.5s45.167 18.333 63.5 34s32.833 36.167 43.5 61.5s15.334 56 14.001 92h141c2 -26 0 -51.833 -6 -77.5s-16.333 -49.5 -31 -71.5
s-34 -41.5 -58 -58.5s-53 -29.833 -87 -38.5v-2c24.667 -9.33301 48 -21.5 70 -36.5s41.333 -33.667 58 -56s29.834 -48.666 39.501 -78.999s14.5 -65.166 14.5 -104.499z" />
    <glyph glyph-name="uni0E0B" unicode="&#xe0b;" horiz-adv-x="750" 
d="M698 295c0 -52 -8.16992 -96.8359 -24.5029 -134.503s-39.166 -68.834 -68.499 -93.501s-64 -42.834 -104 -54.501s-83.333 -17.167 -130 -16.5l-299 4v502c0 31.333 6.5 55.333 19.5 72s27.333 30.834 43 42.501s30 23 43 34s19.5 26.167 19.5 45.5v4h-146v119h74
l57 -41l60 41h88v-96c0 -26.667 -3.16699 -48.334 -9.5 -65.001s-14 -30.667 -23 -42s-19 -21.166 -30 -29.499s-21 -17.333 -30 -27s-16.667 -21 -23 -34s-9.5 -29.833 -9.5 -50.5v-369h112c31.333 0 61.5 2.83301 90.5 8.5s54.5 16.334 76.5 32.001
s39.667 36.834 53 63.501s20 61 20 103c0 34 -4.83301 64.167 -14.5 90.5s-23 48.333 -40 66s-37.5 31.167 -61.5 40.5s-50.333 14 -79 14v97c25.333 0 50 3.5 74 10.5s45.167 18.333 63.5 34s32.833 36.167 43.5 61.5s15.334 56 14.001 92h141c2 -26 0 -51.833 -6 -77.5
s-16.333 -49.5 -31 -71.5s-34 -41.5 -58 -58.5s-53 -29.833 -87 -38.5v-2c24.667 -9.33301 48 -21.5 70 -36.5s41.333 -33.667 58 -56s29.834 -48.666 39.501 -78.999s14.5 -65.166 14.5 -104.499z" />
    <glyph glyph-name="uni0E0C" unicode="&#xe0c;" horiz-adv-x="1329" 
d="M1257 250c0 -41.333 -6.5 -78.334 -19.5 -111.001s-31 -60.167 -54 -82.5s-50.5 -39.333 -82.5 -51s-67.333 -17.5 -106 -17.5c-60.667 0 -110.5 8.5 -149.5 25.5s-72.5 42.5 -100.5 76.5v-90h-133v547c0 30 -5.83301 56 -17.5 78s-27 40.5 -46 55.5
s-40.833 26.167 -65.5 33.5s-50.334 11 -77.001 11c-23.333 0 -45.666 -2.83301 -66.999 -8.5s-40.833 -13.5 -58.5 -23.5s-32.834 -21.833 -45.501 -35.5s-22 -28.834 -28 -45.501l100 -65c-12 -4.66699 -24 -11.167 -36 -19.5s-22.833 -17.666 -32.5 -27.999
s-17.667 -21.333 -24 -33s-9.5 -23.167 -9.5 -34.5v-317h123v-115h-256v420c0 12 2.5 24.167 7.5 36.5s11.667 23.833 20 34.5s18.166 20.167 29.499 28.5s23 14.833 35 19.5l-107 61c8 32 21.5 62.167 40.5 90.5s43.167 53.333 72.5 75s63.833 38.834 103.5 51.501
s83.834 19 132.501 19c58 0 108.333 -7.16699 151 -21.5s78 -33.833 106 -58.5s48.667 -53.167 62 -85.5s20 -66.833 20 -103.5v-286c0 -30.667 5.5 -57.667 16.5 -81s25.667 -42.833 44 -58.5s40 -27.5 65 -35.5s51.5 -12 79.5 -12c54.667 0 97.334 15.667 128.001 47
s46 79.333 46 144v534h133v-569v0z" />
    <glyph glyph-name="uni0E0D" unicode="&#xe0d;" horiz-adv-x="1309" 
d="M1237 63c0 -40.667 -5.33105 -78.5029 -15.998 -113.503s-28.5 -65.167 -53.5 -90.5s-58.333 -45.333 -100 -60s-93.167 -22 -154.5 -22h-301v117h293c35.333 0 65.666 4.16699 90.999 12.5s46 19.666 62 33.999s27.667 30.833 35 49.5s11 38.334 11 59.001v31
c-18.667 -18.667 -37.834 -34 -57.501 -46s-39.834 -21.5 -60.501 -28.5s-41.667 -12 -63 -15s-42.333 -4.5 -63 -4.5c-34.667 0 -67.167 5 -97.5 15s-56.666 24.833 -78.999 44.5s-39.833 44.334 -52.5 74.001s-19 64.167 -19 103.5v324c0 30 -5.83301 56 -17.5 78
s-27 40.5 -46 55.5s-40.833 26.167 -65.5 33.5s-50.334 11 -77.001 11c-23.333 0 -45.666 -2.83301 -66.999 -8.5s-40.833 -13.5 -58.5 -23.5s-32.834 -21.833 -45.501 -35.5s-22 -28.834 -28 -45.501l100 -65c-12 -4.66699 -24 -11.167 -36 -19.5
s-22.833 -17.666 -32.5 -27.999s-17.667 -21.333 -24 -33s-9.5 -23.167 -9.5 -34.5v-317h123v-115h-256v420c0 12 2.5 24.167 7.5 36.5s11.667 23.833 20 34.5s18.166 20.167 29.499 28.5s23 14.833 35 19.5l-107 61c8 32 21.5 62.167 40.5 90.5s43.167 53.333 72.5 75
s63.833 38.834 103.5 51.501s83.834 19 132.501 19c58 0 108.333 -7.16699 151 -21.5s78 -33.833 106 -58.5s48.667 -53.167 62 -85.5s20 -66.833 20 -103.5v-297c0 -37.333 4.5 -67.833 13.5 -91.5s21 -42.167 36 -55.5s32.5 -22.5 52.5 -27.5s40.667 -7.5 62 -7.5
c22.667 0 45.667 4.83301 69 14.5s44.333 23.334 63 41.001s33.834 39 45.501 64s17.5 52.833 17.5 83.5v528h133v-756v0z" />
    <glyph glyph-name="uni0E0E" unicode="&#xe0e;" horiz-adv-x="827" 
d="M487 -276l-99.999 72.999l-98 -73h-207v110h178l127 88l127 -88h109v713c0 30 -5.83301 56 -17.5 78s-27.167 40.5 -46.5 55.5s-41.333 26.167 -66 33.5s-50.334 11 -77.001 11c-23.333 0 -45.5 -2.83301 -66.5 -8.5s-40.333 -13.5 -58 -23.5s-33 -21.833 -46 -35.5
s-22.5 -28.834 -28.5 -45.501l100 -65c-12 -4.66699 -24 -11.167 -36 -19.5s-22.833 -17.666 -32.5 -27.999s-17.667 -21.333 -24 -33s-9.5 -23.167 -9.5 -34.5v-432h-215v115h82v305c0 12 2.5 24.167 7.5 36.5s11.667 23.833 20 34.5s18.166 20.167 29.499 28.5
s23 14.833 35 19.5l-106 61c7.33301 32 20.5 62.167 39.5 90.5s43.167 53.333 72.5 75s63.833 38.834 103.5 51.501s83.834 19 132.501 19c58 0 108.333 -7.16699 151 -21.5s78 -33.833 106 -58.5s48.833 -53.167 62.5 -85.5s20.5 -66.833 20.5 -103.5v-843h-269z" />
    <glyph glyph-name="uni0E0F" unicode="&#xe0f;" horiz-adv-x="827" 
d="M508 -276l-99.999 72.999l-99 -73h-227v192h129v-82h70l127 88l127 -88h88v713c0 30 -5.83301 56 -17.5 78s-27.167 40.5 -46.5 55.5s-41.333 26.167 -66 33.5s-50.334 11 -77.001 11c-23.333 0 -45.5 -2.83301 -66.5 -8.5s-40.333 -13.5 -58 -23.5
s-33 -21.833 -46 -35.5s-22.5 -28.834 -28.5 -45.501l100 -65c-12 -4.66699 -24 -11.167 -36 -19.5s-22.833 -17.666 -32.5 -27.999s-17.667 -21.333 -24 -33s-9.5 -23.167 -9.5 -34.5v-432h-215v115h82v305c0 12 2.5 24.167 7.5 36.5s11.667 23.833 20 34.5
s18.166 20.167 29.499 28.5s23 14.833 35 19.5l-106 61c7.33301 32 20.5 62.167 39.5 90.5s43.167 53.333 72.5 75s63.833 38.834 103.5 51.501s83.834 19 132.501 19c58 0 108.333 -7.16699 151 -21.5s78 -33.833 106 -58.5s48.833 -53.167 62.5 -85.5
s20.5 -66.833 20.5 -103.5v-843h-248z" />
    <glyph glyph-name="uni0E10" unicode="&#xe10;" horiz-adv-x="756" 
d="M705 430c-2 -68 -10.0039 -128.667 -24.0039 -182s-33.833 -98.333 -59.5 -135s-57.167 -64.667 -94.5 -84s-80 -29 -128 -29h-245l-41 330c-3.33301 24.667 -8.83301 42.334 -16.5 53.001s-22.167 16 -43.5 16h-22v107h121c23.333 0 41.833 -6.83301 55.5 -20.5
s22.167 -30.834 25.5 -51.501l41 -323h95c21.333 0 43.833 5.33301 67.5 16s45.5 28.5 65.5 53.5s36.5 57.833 49.5 98.5s19.5 91 19.5 151c0 52 -6 96.5 -18 133.5s-28.5 67.5 -49.5 91.5s-45.5 41.667 -73.5 53s-58 17 -90 17c-46 0 -84.667 -11.167 -116 -33.5
s-52.666 -51.5 -63.999 -87.5h-144c6 31.333 17.833 61 35.5 89s40.834 52.667 69.501 74s62.334 38.166 101.001 50.499s82.667 18.5 132 18.5c53.333 0 101.333 -8.33301 144 -25c13.333 10 22.833 21.5 28.5 34.5s9.16699 24.833 10.5 35.5h161
c-4 -23.333 -15 -46.666 -33 -69.999s-44.333 -41 -79 -53c41.333 -37.333 71.833 -83.833 91.5 -139.5s28.834 -118.5 27.501 -188.5zM456.996 -276l-101 73l-98 -73h-186v110h157l127 88l127 -88h72v80h133v-190h-231z" />
    <glyph glyph-name="uni0E11" unicode="&#xe11;" horiz-adv-x="815" 
d="M610 0v683.998l-381 -684h-157v502c0 31.333 6.5 55.333 19.5 72s27.333 30.834 43 42.501s30 23 43 34s19.5 26.167 19.5 45.5v4h-146v119h74l57 -41l60 41h88v-96c0 -26.667 -3.16699 -48.334 -9.5 -65.001s-14 -30.667 -23 -42s-19 -21.166 -30 -29.499
s-21 -17.333 -30 -27s-16.667 -21 -23 -34s-9.5 -29.833 -9.5 -50.5v-278l346 622h74c36 0 64.667 -10.167 86 -30.5s32 -51.166 32 -92.499v-696h-133z" />
    <glyph glyph-name="uni0E12" unicode="&#xe12;" horiz-adv-x="1356" 
d="M1284 250c0 -41.333 -6.50195 -78.332 -19.502 -110.999s-31 -60.167 -54 -82.5s-50.5 -39.333 -82.5 -51s-67.333 -17.5 -106 -17.5c-60.667 0 -110.667 8.66699 -150 26s-72.666 42.666 -99.999 75.999v-90h-133v700l-121 -112l-137 119
c-14 0.666992 -32.167 -4.16602 -54.5 -14.499s-43.833 -27.166 -64.5 -50.499s-38.5 -53.333 -53.5 -90s-22.5 -80.667 -22.5 -132c0 -65.333 9 -118.833 27 -160.5s40.667 -73.834 68 -96.501s56.833 -37 88.5 -43s61.5 -5.66699 89.5 1v-121
c-61.333 -10 -117.166 -7 -167.499 9s-93.333 42.667 -129 80s-63.167 84.166 -82.5 140.499s-29 119.833 -29 190.5c0 64.667 9.66699 122.834 29 174.501s45.166 95 77.499 130s70 61.167 113 78.5s88.167 24.666 135.5 21.999l112 -98l107 92h147v-538
c0 -30.667 5.33301 -57.667 16 -81s25.334 -42.833 44.001 -58.5s40.5 -27.5 65.5 -35.5s51.5 -12 79.5 -12c54 0 96.5 15.667 127.5 47s46.5 79.333 46.5 144v534h133v-569v0z" />
    <glyph glyph-name="uni0E13" unicode="&#xe13;" horiz-adv-x="1329" 
d="M1124 0l-0.00195312 89.998c-27.333 -33.333 -60.666 -58.666 -99.999 -75.999s-89.333 -26 -150 -26c-38 0 -73.167 5.83301 -105.5 17.5s-60 28.667 -83 51s-41 49.833 -54 82.5s-19.5 69.667 -19.5 111v297c0 30 -5.83301 56 -17.5 78s-27 40.5 -46 55.5
s-40.833 26.167 -65.5 33.5s-50.334 11 -77.001 11c-23.333 0 -45.666 -2.83301 -66.999 -8.5s-40.833 -13.5 -58.5 -23.5s-32.834 -21.833 -45.501 -35.5s-22 -28.834 -28 -45.501l100 -65c-12 -4.66699 -24 -11.167 -36 -19.5s-22.833 -17.666 -32.5 -27.999
s-17.667 -21.333 -24 -33s-9.5 -23.167 -9.5 -34.5v-317h123v-115h-256v420c0 12 2.5 24.167 7.5 36.5s11.667 23.833 20 34.5s18.166 20.167 29.499 28.5s23 14.833 35 19.5l-107 61c8 32 21.5 62.167 40.5 90.5s43.167 53.333 72.5 75s63.833 38.834 103.5 51.501
s83.834 19 132.501 19c58 0 108.333 -7.16699 151 -21.5s78 -33.833 106 -58.5s48.667 -53.167 62 -85.5s20 -66.833 20 -103.5v-282c0 -64.667 15.5 -112.667 46.5 -144s73.833 -47 128.5 -47c28 0 54.333 4 79 12s46.334 19.833 65.001 35.5s33.334 35.167 44.001 58.5
s16 50.333 16 81v538h133v-819h-133z" />
    <glyph glyph-name="uni0E14" unicode="&#xe14;" horiz-adv-x="829" 
d="M625 0l-0.00390625 705l-154 2c-37.333 0.666992 -73.166 -4.83301 -107.499 -16.5s-64.666 -30 -90.999 -55s-47.333 -57 -63 -96s-23.5 -85.833 -23.5 -140.5c0 -58 8.83301 -106.5 26.5 -145.5s40 -69.833 67 -92.5s56.5 -37 88.5 -43s62.333 -5 91 3v-121
c-55.333 -11.333 -107.666 -10.333 -156.999 3s-92.666 37.833 -129.999 73.5s-66.833 81.667 -88.5 138s-32.5 121.5 -32.5 195.5c0 55.333 8.5 108 25.5 158s42 93.833 75 131.5s73.667 67.5 122 89.5s103.833 32.667 166.5 32l318 -2v-819h-133z" />
    <glyph glyph-name="uni0E15" unicode="&#xe15;" horiz-adv-x="844" 
d="M639 0v700l-121 -112l-137 119c-14 0.666992 -32.167 -4.16602 -54.5 -14.499s-43.833 -27.166 -64.5 -50.499s-38.5 -53.333 -53.5 -90s-22.5 -80.667 -22.5 -132c0 -65.333 9 -118.833 27 -160.5s40.667 -73.834 68 -96.501s56.833 -37 88.5 -43s61.5 -5.66699 89.5 1
v-121c-61.333 -10 -117.166 -7 -167.499 9s-93.333 42.667 -129 80s-63.167 84.166 -82.5 140.499s-29 119.833 -29 190.5c0 64.667 9.66699 122.834 29 174.501s45.166 95 77.499 130s70 61.167 113 78.5s88.167 24.666 135.5 21.999l112 -98l107 92h147v-819h-133z" />
    <glyph glyph-name="uni0E16" unicode="&#xe16;" horiz-adv-x="817" 
d="M612 0l0.000976562 546.999c0 30 -5.83301 56 -17.5 78s-27 40.5 -46 55.5s-40.833 26.167 -65.5 33.5s-50.334 11 -77.001 11c-23.333 0 -45.666 -2.83301 -66.999 -8.5s-40.833 -13.5 -58.5 -23.5s-32.834 -21.833 -45.501 -35.5s-22 -28.834 -28 -45.501l100 -65
c-12 -4.66699 -24 -11.167 -36 -19.5s-22.833 -17.666 -32.5 -27.999s-17.667 -21.333 -24 -33s-9.5 -23.167 -9.5 -34.5v-317h123v-115h-256v420c0 12 2.5 24.167 7.5 36.5s11.667 23.833 20 34.5s18.166 20.167 29.499 28.5s23 14.833 35 19.5l-107 61
c8 32 21.5 62.167 40.5 90.5s43.167 53.333 72.5 75s63.833 38.834 103.5 51.501s83.834 19 132.501 19c58 0 108.333 -7.16699 151 -21.5s78 -33.833 106 -58.5s48.667 -53.167 62 -85.5s20 -66.833 20 -103.5v-567h-133z" />
    <glyph glyph-name="uni0E17" unicode="&#xe17;" horiz-adv-x="817" 
d="M612 0l-0.00195312 532.001c0 62.667 -15.167 111.834 -45.5 147.501s-74.5 53.5 -132.5 53.5c-33.333 0 -64 -7.5 -92 -22.5s-52.167 -33.833 -72.5 -56.5s-36.166 -47.834 -47.499 -75.501s-17 -53.834 -17 -78.501v-500h-133v819h133v-110
c25.333 34.667 61 63.667 107 87s98.333 35 157 35c46.667 0 87.334 -7.5 122.001 -22.5s63.5 -34.833 86.5 -59.5s40 -53.167 51 -85.5s16.5 -65.833 16.5 -100.5v-563h-133z" />
    <glyph glyph-name="uni0E18" unicode="&#xe18;" horiz-adv-x="793" 
d="M61 0l0.00488281 366.998h134v-248h405v139c0 25.333 -7.83301 45.5 -23.5 60.5s-36.334 27 -62.001 36s-54.834 16.167 -87.501 21.5l-100.5 16.5c-34.333 5.66699 -67.833 12.667 -100.5 21s-61.834 20 -87.501 35s-46.334 34.667 -62.001 59
s-23.5 55.166 -23.5 92.499c0 32 7.33301 62.167 22 90.5s36.167 53.333 64.5 75s63 38.834 104 51.501s87.5 19 139.5 19c59.333 0 110.666 -6.66699 153.999 -20s79 -31 107 -53s48.833 -47.333 62.5 -76s20.5 -58.334 20.5 -89.001h-133c0 20.667 -6.5 38.5 -19.5 53.5
s-29.667 27.5 -50 37.5s-42.833 17.5 -67.5 22.5s-48.667 7.5 -72 7.5c-30 0 -57.167 -3.16699 -81.5 -9.5s-45 -14.666 -62 -24.999s-30.167 -22.666 -39.5 -36.999s-14 -29.5 -14 -45.5c0 -19.333 7.83301 -35 23.5 -47s36.167 -21.667 61.5 -29
s54.333 -13.666 87 -18.999l100.5 -17c34.333 -6 67.833 -13.5 100.5 -22.5s61.667 -21 87 -36s45.833 -34.167 61.5 -57.5s23.5 -52.333 23.5 -87v-287h-672z" />
    <glyph glyph-name="uni0E19" unicode="&#xe19;" horiz-adv-x="817" 
d="M612 0l-0.000976562 111.003c-36 -42 -77 -73 -123 -93s-99 -30 -159 -30c-44 0 -82.167 7.5 -114.5 22.5s-59.166 34.833 -80.499 59.5s-37.166 53.167 -47.499 85.5s-15.5 65.833 -15.5 100.5v563h51c54.667 0 82 -30 82 -90v-442
c0 -62.667 15.167 -111.834 45.5 -147.501s74.5 -53.5 132.5 -53.5c33.333 0 64 7 92 21s52.167 31.667 72.5 53s36.166 45.166 47.499 71.499s17 52.166 17 77.499v510h133v-819h-133z" />
    <glyph glyph-name="uni0E1A" unicode="&#xe1a;" horiz-adv-x="817" 
d="M745 254c0 -35.333 -7.16602 -69.166 -21.499 -101.499s-35.5 -61 -63.5 -86s-63 -45 -105 -60s-91 -22.5 -147 -22.5c-55.333 0 -104 7.5 -146 22.5s-77 35 -105 60s-49.167 53.667 -63.5 86s-21.5 66.166 -21.5 101.499v565h51c54.667 0 82 -30 82 -90v-457
c0 -32 5.83301 -59.167 17.5 -81.5s27 -40.666 46 -54.999s40.667 -24.833 65 -31.5s49.166 -10 74.499 -10s50.333 3.33301 75 10s46.5 17.167 65.5 31.5s34.333 32.666 46 54.999s17.5 49.5 17.5 81.5v547h133v-565v0z" />
    <glyph glyph-name="uni0E1B" unicode="&#xe1b;" horiz-adv-x="817" 
d="M745 254c0 -35.333 -7.16602 -69.166 -21.499 -101.499s-35.5 -61 -63.5 -86s-63 -45 -105 -60s-91 -22.5 -147 -22.5c-55.333 0 -104 7.5 -146 22.5s-77 35 -105 60s-49.167 53.667 -63.5 86s-21.5 66.166 -21.5 101.499v565h51c54.667 0 82 -30 82 -90v-457
c0 -32 5.83301 -59.167 17.5 -81.5s27 -40.666 46 -54.999s40.667 -24.833 65 -31.5s49.166 -10 74.499 -10s50.333 3.33301 75 10s46.5 17.167 65.5 31.5s34.333 32.666 46 54.999s17.5 49.5 17.5 81.5v752h133v-770v0z" />
    <glyph glyph-name="uni0E1C" unicode="&#xe1c;" horiz-adv-x="954" 
d="M803 0h-160l-162 606h-4l-162 -606h-159l-127 819h231v-98h-86l78 -535h4l172 633h102l172 -633h5l94 633h129z" />
    <glyph glyph-name="uni0E1D" unicode="&#xe1d;" horiz-adv-x="954" 
d="M803 0h-160l-162 606h-4l-162 -606h-159l-127 819h231v-98h-86l78 -535h4l172 633h102l172 -633h5l129 854h129z" />
    <glyph glyph-name="uni0E1E" unicode="&#xe1e;" horiz-adv-x="954" 
d="M803 0h-160l-162 606h-4l-162 -606h-159l-127 819h131l92 -633h4l172 633h102l172 -633h5l94 633h129z" />
    <glyph glyph-name="uni0E1F" unicode="&#xe1f;" horiz-adv-x="954" 
d="M803 0h-160l-162 606h-4l-162 -606h-159l-127 819h131l92 -633h4l172 633h102l172 -633h5l127 838h129z" />
    <glyph glyph-name="uni0E20" unicode="&#xe20;" horiz-adv-x="827" 
d="M623 0l0.000976562 546.999c0 30 -5.83301 56 -17.5 78s-27.167 40.5 -46.5 55.5s-41.333 26.167 -66 33.5s-50.334 11 -77.001 11c-23.333 0 -45.5 -2.83301 -66.5 -8.5s-40.333 -13.5 -58 -23.5s-33 -21.833 -46 -35.5s-22.5 -28.834 -28.5 -45.501l100 -65
c-12 -4.66699 -24 -11.167 -36 -19.5s-22.833 -17.666 -32.5 -27.999s-17.667 -21.333 -24 -33s-9.5 -23.167 -9.5 -34.5v-432h-215v115h82v305c0 12 2.5 24.167 7.5 36.5s11.667 23.833 20 34.5s18.166 20.167 29.499 28.5s23 14.833 35 19.5l-106 61
c7.33301 32 20.5 62.167 39.5 90.5s43.167 53.333 72.5 75s63.833 38.834 103.5 51.501s83.834 19 132.501 19c58 0 108.333 -7.16699 151 -21.5s78 -33.833 106 -58.5s48.833 -53.167 62.5 -85.5s20.5 -66.833 20.5 -103.5v-567h-133z" />
    <glyph glyph-name="uni0E21" unicode="&#xe21;" horiz-adv-x="817" 
d="M745 256c0 -34.667 -5.16699 -68.1699 -15.5 -100.503s-26 -60.833 -47 -85.5s-47.833 -44.5 -80.5 -59.5s-71 -22.5 -115 -22.5c-59.333 0 -112.166 10 -158.499 30s-87.5 51 -123.5 93v-111h-133v819h51c54.667 0 82 -30 82 -90v-420
c0 -25.333 5.66699 -51.166 17 -77.499s27.166 -50.166 47.499 -71.499s44.5 -39 72.5 -53s58.667 -21 92 -21c58 0 102.167 17.833 132.5 53.5s45.5 84.834 45.5 147.501v532h133v-563v0z" />
    <glyph glyph-name="uni0E22" unicode="&#xe22;" horiz-adv-x="809" 
d="M311 -4c-46.667 -0.666992 -87 5.16504 -121 17.498s-62 29.166 -84 50.499s-38.333 46.333 -49 75s-16 59.334 -16 92.001c0 28 4.16699 53.667 12.5 77s20 44.333 35 63s32.667 34.334 53 47.001s42.166 22 65.499 28v5c-19.333 4 -37.833 10.167 -55.5 18.5
s-33 19.666 -46 33.999s-23.333 31.833 -31 52.5s-11.5 45 -11.5 73c0 26.667 5.16699 51.667 15.5 75s25 43.833 44 61.5s42 31.5 69 41.5s56.833 14.667 89.5 14l106 -2v-114l-31 2c-21.333 1.33301 -41.333 0.166016 -60 -3.50098s-34.834 -9.66699 -48.501 -18
s-24.5 -19.166 -32.5 -32.499s-12 -29 -12 -47c0 -21.333 5.33301 -38.833 16 -52.5s24.5 -24.167 41.5 -31.5s36.5 -12.333 58.5 -15s44.667 -3.66699 68 -3v-115c-26 0.666992 -51.167 -1.83301 -75.5 -7.5s-45.666 -14.5 -63.999 -26.5s-33.166 -27 -44.499 -45
s-17 -38.667 -17 -62c0 -31.333 6.16699 -56 18.5 -74s28.333 -31.667 48 -41s42.167 -15.166 67.5 -17.499s51 -3.16602 77 -2.49902l207 4v702h133v-819z" />
    <glyph glyph-name="uni0E23" unicode="&#xe23;" horiz-adv-x="770" 
d="M721 256c0 -47.333 -8.49609 -88 -25.4961 -122s-40.333 -62.167 -70 -84.5s-64.834 -38.833 -105.501 -49.5s-85 -16 -133 -16c-50 0 -96 5.5 -138 16.5s-78.167 27.833 -108.5 50.5s-54.166 51 -71.499 85s-26.666 74 -27.999 120h139
c3.33301 -34 12.166 -61.667 26.499 -83s31.666 -38 51.999 -50s42.333 -20.167 66 -24.5s46.5 -6.5 68.5 -6.5c25.333 0 49.666 3.16699 72.999 9.5s44 16 62 29s32.5 29.5 43.5 49.5s16.5 43.333 16.5 70c0 29.333 -7.66699 52.166 -23 68.499s-35.666 29 -60.999 38
s-54.166 15.5 -86.499 19.5s-65.333 7.83301 -99 11.5s-66.5 8.66699 -98.5 15s-60.667 16.5 -86 30.5s-45.5 32.833 -60.5 56.5s-22.5 55.167 -22.5 94.5c0 38 8 72.5 24 103.5s38.167 57.5 66.5 79.5s61.833 39 100.5 51s81 18 127 18c48.667 0 93.667 -5.83301 135 -17.5
s77.5 -28.334 108.5 -50.001s55.833 -48 74.5 -79s30 -66.167 34 -105.5h-135c-4 25.333 -13 47 -27 65s-30.833 32.833 -50.5 44.5s-41.334 20.167 -65.001 25.5s-47.167 8 -70.5 8s-46.333 -3.16699 -69 -9.5s-42.834 -15.166 -60.501 -26.499s-32 -25.5 -43 -42.5
s-16.5 -35.833 -16.5 -56.5c0 -22 7.66699 -38.667 23 -50s35.666 -20 60.999 -26s54 -10.333 86 -13s64.833 -6 98.5 -10s66.5 -10.167 98.5 -18.5s60.667 -21.166 86 -38.499s45.666 -40.5 60.999 -69.5s23 -65.833 23 -110.5z" />
    <glyph glyph-name="uni0E24" unicode="&#xe24;" horiz-adv-x="817" 
d="M612 -246l0.000976562 792.999c0 30 -5.83301 56 -17.5 78s-27 40.5 -46 55.5s-40.833 26.167 -65.5 33.5s-50.334 11 -77.001 11c-23.333 0 -45.666 -2.83301 -66.999 -8.5s-40.833 -13.5 -58.5 -23.5s-32.834 -21.833 -45.501 -35.5s-22 -28.834 -28 -45.501l100 -65
c-12 -4.66699 -24 -11.167 -36 -19.5s-22.833 -17.666 -32.5 -27.999s-17.667 -21.333 -24 -33s-9.5 -23.167 -9.5 -34.5v-317h123v-115h-256v420c0 12 2.5 24.167 7.5 36.5s11.667 23.833 20 34.5s18.166 20.167 29.499 28.5s23 14.833 35 19.5l-107 61
c8 32 21.5 62.167 40.5 90.5s43.167 53.333 72.5 75s63.833 38.834 103.5 51.501s83.834 19 132.501 19c58 0 108.333 -7.16699 151 -21.5s78 -33.833 106 -58.5s48.667 -53.167 62 -85.5s20 -66.833 20 -103.5v-813h-133z" />
    <glyph glyph-name="uni0E25" unicode="&#xe25;" horiz-adv-x="811" 
d="M606 0l0.0078125 341.998c-4.66699 10 -12.834 20.833 -24.501 32.5s-26.334 22.667 -44.001 33s-38 19 -61 26s-48.167 10.5 -75.5 10.5c-30.667 0 -59.334 -4.33301 -86.001 -13s-49.834 -21 -69.501 -37s-35.167 -35.167 -46.5 -57.5s-17 -47.166 -17 -74.499
c0 -32 6.83301 -59.167 20.5 -81.5s31.5 -39.5 53.5 -51.5s46.833 -19.167 74.5 -21.5s55.5 0.166992 83.5 7.5v-117c-46 -8.66699 -90.667 -10.5 -134 -5.5s-82 17.833 -116 38.5s-61.333 50 -82 88s-31 85.667 -31 143c0 42 8.16699 81.167 24.5 117.5
s39.166 67.666 68.499 93.999s64 47.166 104 62.499s83.667 23 131 23c32 0 61.167 -2.66699 87.5 -8s49.166 -11.666 68.499 -18.999s35 -14.666 47 -21.999s20 -13.333 24 -18v73c0 28 -5.5 52 -16.5 72s-25.833 36.5 -44.5 49.5s-40 22.667 -64 29s-49 9.5 -75 9.5
c-24.667 0 -48.167 -2.83301 -70.5 -8.5s-42.333 -14 -60 -25s-32.667 -24.667 -45 -41s-20.833 -35.166 -25.5 -56.499h-139c3.33301 32.667 13.666 63.667 30.999 93s40.5 55 69.5 77s63.333 39.5 103 52.5s83.5 19.5 131.5 19.5c54.667 0 103.167 -6.16699 145.5 -18.5
s77.666 -29.833 105.999 -52.5s49.833 -49.5 64.5 -80.5s22 -65.167 22 -102.5v-582h-133z" />
    <glyph glyph-name="uni0E26" unicode="&#xe26;" horiz-adv-x="827" 
d="M623 -246l0.000976562 792.999c0 30 -5.83301 56 -17.5 78s-27.167 40.5 -46.5 55.5s-41.333 26.167 -66 33.5s-50.334 11 -77.001 11c-23.333 0 -45.5 -2.83301 -66.5 -8.5s-40.333 -13.5 -58 -23.5s-33 -21.833 -46 -35.5s-22.5 -28.834 -28.5 -45.501l100 -65
c-12 -4.66699 -24 -11.167 -36 -19.5s-22.833 -17.666 -32.5 -27.999s-17.667 -21.333 -24 -33s-9.5 -23.167 -9.5 -34.5v-432h-215v115h82v305c0 12 2.5 24.167 7.5 36.5s11.667 23.833 20 34.5s18.166 20.167 29.499 28.5s23 14.833 35 19.5l-106 61
c7.33301 32 20.5 62.167 39.5 90.5s43.167 53.333 72.5 75s63.833 38.834 103.5 51.501s83.834 19 132.501 19c58 0 108.333 -7.16699 151 -21.5s78 -33.833 106 -58.5s48.833 -53.167 62.5 -85.5s20.5 -66.833 20.5 -103.5v-813h-133z" />
    <glyph glyph-name="uni0E27" unicode="&#xe27;" horiz-adv-x="772" 
d="M721 410c0 -67.333 -6.83301 -127.331 -20.5 -179.998s-34.834 -97.334 -63.501 -134.001s-65 -64.5 -109 -83.5s-96.333 -28.5 -157 -28.5c-46.667 0 -89.334 6.83301 -128.001 20.5s-72.334 32 -101.001 55s-51.667 50 -69 81s-28 64.167 -32 99.5h145
c4.66699 -18.667 12.667 -36 24 -52s25 -29.833 41 -41.5s33.833 -20.834 53.5 -27.501s40.5 -10 62.5 -10c22.667 0 46.5 3.5 71.5 10.5s47.833 21.167 68.5 42.5s37.667 51.666 51 90.999s20 91.666 20 156.999c0 64.667 -6.66699 116.834 -20 156.501
s-30.333 70.167 -51 91.5s-43.5 35.5 -68.5 42.5s-48.833 10.5 -71.5 10.5c-22 0 -42.833 -3.33301 -62.5 -10s-37.5 -16 -53.5 -28s-29.667 -26 -41 -42s-19.333 -33 -24 -51h-145c4 34.667 14.667 67.5 32 98.5s40.333 58.167 69 81.5s62.334 41.833 101.001 55.5
s81.334 20.5 128.001 20.5c60.667 0 113 -9.66699 157 -29s80.333 -47.166 109 -83.499s49.834 -81 63.501 -134s20.5 -112.833 20.5 -179.5z" />
    <glyph glyph-name="uni0E28" unicode="&#xe28;" horiz-adv-x="817" 
d="M764 881c-4 -23.333 -15.168 -45.834 -33.501 -67.501s-43.5 -40.167 -75.5 -55.5c30 -24.667 52.5 -53.667 67.5 -87s22.5 -68.666 22.5 -105.999v-565h-133v547c0 32 -5.83301 59.167 -17.5 81.5s-27 40.666 -46 54.999s-40.833 24.833 -65.5 31.5s-49.667 10 -75 10
s-50.166 -3.33301 -74.499 -10s-46 -17.167 -65 -31.5s-34.333 -32.666 -46 -54.999s-17.5 -49.5 -17.5 -81.5v-88h192v-119h-192v-340h-133v565c0 35.333 7.16699 69.333 21.5 102s35.5 61.5 63.5 86.5s63 45 105 60s90.667 22.5 146 22.5c30 0 57.667 -2.16699 83 -6.5
s49.333 -10.5 72 -18.5c13.333 10 22.833 21.5 28.5 34.5s9.16699 24.833 10.5 35.5h162v0z" />
    <glyph glyph-name="uni0E29" unicode="&#xe29;" horiz-adv-x="817" 
d="M745 254c0 -35.333 -7.16602 -69.165 -21.499 -101.498s-35.5 -61 -63.5 -86s-63 -45 -105 -60s-91 -22.5 -147 -22.5c-55.333 0 -104 7.5 -146 22.5s-77 35 -105 60s-49.167 53.667 -63.5 86s-21.5 66.166 -21.5 101.499v565h133v-547c0 -32 5.83301 -59.167 17.5 -81.5
s27 -40.666 46 -54.999s40.667 -24.833 65 -31.5s49.166 -10 74.499 -10s50.333 3.33301 75 10s46.5 17.167 65.5 31.5s34.333 32.666 46 54.999s17.5 49.5 17.5 81.5v148c-7.33301 -23.333 -20.833 -42.833 -40.5 -58.5s-42.167 -23.5 -67.5 -23.5
c-15.333 0 -29.833 3 -43.5 9s-25.667 14.167 -36 24.5s-18.5 22.333 -24.5 36s-9 28.167 -9 43.5s3 29.833 9 43.5s14.167 25.5 24.5 35.5s22.333 18 36 24s28.167 9 43.5 9c25.333 0 47.833 -7.83301 67.5 -23.5s33.167 -35.834 40.5 -60.501v340h133v-565v0z" />
    <glyph glyph-name="uni0E2A" unicode="&#xe2a;" horiz-adv-x="811" 
d="M768 881c-4 -22.667 -14.9932 -45.502 -32.9932 -68.502s-42.333 -41.167 -73 -54.5c51.333 -45.333 77 -104 77 -176v-582h-133v342c-4.66699 10 -12.834 20.833 -24.501 32.5s-26.334 22.667 -44.001 33s-38 19 -61 26s-48.167 10.5 -75.5 10.5
c-30.667 0 -59.334 -4.33301 -86.001 -13s-49.834 -21 -69.501 -37s-35.167 -35.167 -46.5 -57.5s-17 -47.166 -17 -74.499c0 -32 6.83301 -59.167 20.5 -81.5s31.5 -39.5 53.5 -51.5s46.833 -19.167 74.5 -21.5s55.5 0.166992 83.5 7.5v-117
c-46 -8.66699 -90.667 -10.5 -134 -5.5s-82 17.833 -116 38.5s-61.333 50 -82 88s-31 85.667 -31 143c0 42 8.16699 81.167 24.5 117.5s39.166 67.666 68.499 93.999s64 47.166 104 62.499s83.667 23 131 23c32 0 61.167 -2.66699 87.5 -8s49.166 -11.666 68.499 -18.999
s35 -14.666 47 -21.999s20 -13.333 24 -18v73c0 28 -5.5 52 -16.5 72s-25.833 36.5 -44.5 49.5s-40 22.667 -64 29s-49 9.5 -75 9.5c-24.667 0 -48.167 -2.83301 -70.5 -8.5s-42.333 -14 -60 -25s-32.667 -24.667 -45 -41s-20.833 -35.166 -25.5 -56.499h-139
c3.33301 32.667 13.666 63.667 30.999 93s40.5 55 69.5 77s63.333 39.5 103 52.5s83.5 19.5 131.5 19.5c32 0 61.833 -2.16699 89.5 -6.5s53.167 -10.5 76.5 -18.5c13.333 10 22.833 21.5 28.5 34.5s9.16699 24.833 10.5 35.5h162v0z" />
    <glyph glyph-name="uni0E2B" unicode="&#xe2b;" horiz-adv-x="817" 
d="M612 0l0.000976562 421.998c0 27.333 -2.33301 52.5 -7 75.5s-12.5 42.667 -23.5 59s-25.833 29 -44.5 38s-42 13.5 -70 13.5c-30.667 0 -61.667 -7.66699 -93 -23s-59.5 -34.833 -84.5 -58.5s-45.333 -49.5 -61 -77.5s-23.5 -54.667 -23.5 -80v-369h-133v819h133v-229
c4.66699 4.66699 13.167 12.5 25.5 23.5s27.666 22.5 45.999 34.5s39.5 23.333 63.5 34s50.667 18.334 80 23.001h-103v114h428v-114h-184c32.667 -5.33301 60.667 -15.166 84 -29.499s42.333 -31.833 57 -52.5s25.5 -44 32.5 -70s10.5 -53.333 10.5 -82v-471h-133z" />
    <glyph glyph-name="uni0E2C" unicode="&#xe2c;" horiz-adv-x="954" 
d="M956 983c-2.66699 -15.333 -6.00098 -31.5 -10.001 -48.5s-10.667 -33.167 -20 -48.5s-22 -28.833 -38 -40.5s-37 -19.834 -63 -24.501v-4c18.667 -5.33301 33.834 -13.166 45.501 -23.499s20.5 -22.166 26.5 -35.499s9.66699 -27.5 11 -42.5s1 -29.5 -1 -43.5l-104 -672
h-160l-162 606h-4l-162 -606h-159l-127 819h131l92 -633h4l172 633h102l172 -633h5l67 451c6 40 2.33301 71.667 -11 95s-41 38.666 -83 45.999v82c44 5.33301 78.833 18.833 104.5 40.5s40.5 54.5 44.5 98.5c0 3.33301 0.333008 6.33301 1 9
c0 2.66699 0.166992 5.5 0.5 8.5s0.5 5.5 0.5 7.5h132z" />
    <glyph glyph-name="uni0E2D" unicode="&#xe2d;" horiz-adv-x="899" 
d="M848 412c0 -64 -9.1709 -122.334 -27.5039 -175.001s-44.833 -97.667 -79.5 -135s-76.5 -66.333 -125.5 -87s-104.5 -31 -166.5 -31c-61.333 0 -116.666 10.333 -165.999 31s-91.166 49.667 -125.499 87s-60.666 82.333 -78.999 135s-27.5 111 -27.5 175
c0 17.333 0.666992 32.5 2 45.5s2 21.5 2 25.5h379v-110h-237c3.33301 -49.333 13 -91 29 -125s35.667 -61.667 59 -83s49.333 -36.833 78 -46.5s57.334 -14.5 86.001 -14.5c30.667 0 61.5 5.5 92.5 16.5s58.667 28.667 83 53s44.166 56 59.499 95s23 86.833 23 143.5
c0 56 -7.66699 103.333 -23 142s-35.166 70 -59.499 94s-52 41.167 -83 51.5s-61.833 15.5 -92.5 15.5c-22.667 0 -45.5 -2.83301 -68.5 -8.5s-44.667 -14.667 -65 -27s-39 -28.666 -56 -48.999s-31.167 -45.5 -42.5 -75.5l-135 39c28 76 73.667 135.333 137 178
s140 64 230 64c62 0 117.5 -10.167 166.5 -30.5s90.833 -49 125.5 -86s61.167 -81.5 79.5 -133.5s27.5 -110 27.5 -174z" />
    <glyph glyph-name="uni0E2E" unicode="&#xe2e;" horiz-adv-x="899" 
d="M848 412c0 -64 -9.17188 -122.334 -27.5049 -175.001s-44.833 -97.667 -79.5 -135s-76.5 -66.333 -125.5 -87s-104.5 -31 -166.5 -31c-61.333 0 -116.666 10.333 -165.999 31s-91.166 49.667 -125.499 87s-60.666 82.333 -78.999 135s-27.5 111 -27.5 175
c0 17.333 0.666992 32.5 2 45.5s2 21.5 2 25.5h379v-110h-237c3.33301 -49.333 13 -91 29 -125s35.667 -61.667 59 -83s49.333 -36.833 78 -46.5s57.334 -14.5 86.001 -14.5c30.667 0 61.5 5.5 92.5 16.5s58.667 28.667 83 53s44.166 56 59.499 95s23 86.833 23 143.5
c0 56 -7.66699 103.333 -23 142s-35.166 70 -59.499 94s-52 41.167 -83 51.5s-61.833 15.5 -92.5 15.5c-22.667 0 -45.5 -2.83301 -68.5 -8.5s-44.667 -14.667 -65 -27s-39 -28.666 -56 -48.999s-31.167 -45.5 -42.5 -75.5l-135 39c28 76 73.667 135.333 137 178
s140 64 230 64c30 0 58.5 -2.5 85.5 -7.5s52.167 -12.167 75.5 -21.5c13.333 11.333 22.833 23.833 28.5 37.5s9.16699 25.834 10.5 36.501h162c-4 -22.667 -15.333 -45.334 -34 -68.001s-45 -41 -79 -55c48.667 -36 85.834 -83.5 111.501 -142.5s38.5 -126.833 38.5 -203.5
z" />
    <glyph glyph-name="uni0E2F" unicode="&#xe2f;" horiz-adv-x="762" 
d="M557 0l0.000976562 631.001c-12 -17.333 -27.833 -34 -47.5 -50s-42 -30 -67 -42s-52.833 -21.5 -83.5 -28.5s-63 -10.5 -97 -10.5c-27.333 0 -53.833 3.83301 -79.5 11.5s-48.167 19 -67.5 34s-34.833 33.5 -46.5 55.5s-17.5 47 -17.5 75c0 22 3.66699 42 11 60
s17.5 33.333 30.5 46s28.333 22.5 46 29.5s36.5 10.167 56.5 9.5l75 -2v-92h-20c-17.333 0 -32.333 -5.33301 -45 -16s-19 -23.667 -19 -39c0 -23.333 10.333 -41.833 31 -55.5s48 -20.5 82 -20.5c25.333 0 52.166 5.16699 80.499 15.5s54.666 25.166 78.999 44.499
s45.333 42.833 63 70.5s28.834 58.5 33.501 92.5h135v-819h-133z" />
    <glyph glyph-name="uni0E30" unicode="&#xe30;" horiz-adv-x="487" 
d="M72 530v187h133v-82h211v-105h-344zM72 102v187h133v-82h211v-105h-344z" />
    <glyph glyph-name="uni0E31" unicode="&#xe31;" 
d="M-424 922v188h133v-76h473v-112h-606z" />
    <glyph glyph-name="uni0E32" unicode="&#xe32;" horiz-adv-x="477" 
d="M272 0v469.001c0 32.667 -3 62.834 -9 90.501s-16 51.667 -30 72s-32.5 36.166 -55.5 47.499s-51.5 17 -85.5 17h-61v123h90c52 0 96 -8.5 132 -25.5s65.333 -40.333 88 -70s39.167 -64.334 49.5 -104.001s15.5 -82.167 15.5 -127.5v-492h-134z" />
    <glyph glyph-name="uni0E33" unicode="&#xe33;" horiz-adv-x="477" 
d="M-35 1026c0 -24.667 -8.83301 -46.5 -26.5 -65.5s-42.834 -28.5 -75.501 -28.5c-33.333 0 -59.166 9.5 -77.499 28.5s-27.5 40.833 -27.5 65.5s9.16699 46.5 27.5 65.5s44.166 28.5 77.499 28.5c32.667 0 57.834 -9.5 75.501 -28.5s26.5 -40.833 26.5 -65.5zM272 0
v469.001c0 32.667 -3 62.834 -9 90.501s-16 51.667 -30 72s-32.5 36.166 -55.5 47.499s-51.5 17 -85.5 17h-61v123h90c52 0 96 -8.5 132 -25.5s65.333 -40.333 88 -70s39.167 -64.334 49.5 -104.001s15.5 -82.167 15.5 -127.5v-492h-134z" />
    <glyph glyph-name="uni0E34" unicode="&#xe34;" 
d="M-72 1010c0 -28 -7.66699 -49.667 -23 -65s-37 -23 -65 -23h-571v112h659v-24v0z" />
    <glyph glyph-name="uni0E35" unicode="&#xe35;" 
d="M-731 922v112h526v103h133v-215h-659z" />
    <glyph glyph-name="uni0E36" unicode="&#xe36;" 
d="M-18 1026c0 -13.333 -2.66699 -26.167 -8 -38.5s-13 -23.333 -23 -33s-22.5 -17.5 -37.5 -23.5s-31.833 -9 -50.5 -9h-594v112h471c1.33301 28 12.333 51.5 33 70.5s50.667 28.5 90 28.5c19.333 0 36.5 -2.83301 51.5 -8.5s27.5 -13.5 37.5 -23.5s17.5 -21.5 22.5 -34.5
s7.5 -26.5 7.5 -40.5z" />
    <glyph glyph-name="uni0E37" unicode="&#xe37;" 
d="M-731 922v112h332v103h133v-103h61v103h133v-215h-659z" />
    <glyph glyph-name="uni0E38" unicode="&#xe38;" 
d="M-205 -328v150h-100v117h233v-267h-133z" />
    <glyph glyph-name="uni0E39" unicode="&#xe39;" 
d="M-72 -164c0 -27.333 -3.6709 -50.167 -11.0039 -68.5s-18.666 -33 -33.999 -44s-35 -18.833 -59 -23.5s-52.667 -7 -86 -7c-36 0 -66.167 2.33301 -90.5 7s-43.666 12.667 -57.999 24s-24.666 26.5 -30.999 45.5s-9.5 43.167 -9.5 72.5h-43v97h177v-103
c0 -20.667 5 -34 15 -40s23.333 -9 40 -9s30.334 3 41.001 9s16 19.333 16 40v103h133v-103v0z" />
    <glyph glyph-name="uni0E3A" unicode="&#xe3a;" 
d="M-43 -152c0 -24.667 -9 -45.834 -27 -63.501s-41 -26.5 -69 -26.5s-51.167 8.83301 -69.5 26.5s-27.5 38.834 -27.5 63.501c0 26 9.16699 47.667 27.5 65s41.5 26 69.5 26s51 -8.66699 69 -26s27 -39 27 -65z" />
    <glyph glyph-name="uni0E3F" unicode="&#xe3f;" horiz-adv-x="844" 
d="M739 258c0 -45.333 -7.49805 -83.332 -22.498 -113.999s-35.5 -56 -61.5 -76s-56.5 -35.167 -91.5 -45.5s-72.5 -17.166 -112.5 -20.499v-149h-80v147h-256v965h256v149h80v-153c39.333 -4 75.166 -11.333 107.499 -22s60.166 -25.667 83.499 -45s41.333 -43.333 54 -72
s19 -62.334 19 -101.001c0 -65.333 -18 -116.166 -54 -152.499s-84.333 -61.833 -145 -76.5v-3c32.667 -2.66699 62.667 -9.83398 90 -21.501s50.833 -27.334 70.5 -47.001s35 -43.167 46 -70.5s16.5 -58 16.5 -92zM575.002 709.001
c0 22.667 -3.33203 42.002 -9.99902 58.002s-15.834 29.5 -27.501 40.5s-25 19.667 -40 26s-30.5 11.166 -46.5 14.499v-287c18 3.33301 34.667 8.5 50 15.5s28.5 16.167 39.5 27.5s19.5 25.666 25.5 42.999s9 38 9 62zM371.003 852.003h-117v-299h76h41v299z
M594.003 270.003c0 26 -3.66797 48.3311 -11.001 66.998s-17.5 34.334 -30.5 47.001s-28.167 22.834 -45.5 30.501s-36 13.5 -56 17.5v-313c20 3.33301 38.833 8.5 56.5 15.5s32.834 16.5 45.501 28.5s22.667 26.667 30 44s11 38.333 11 63zM371.002 440.001h-29h-88v-327
h102h15v327z" />
    <glyph glyph-name="uni0E40" unicode="&#xe40;" horiz-adv-x="358" 
d="M113 0v819h133v-819h-133z" />
    <glyph glyph-name="uni0E41" unicode="&#xe41;" horiz-adv-x="594" 
d="M348 0v819h133v-819h-133zM113 0v819h133v-819h-133z" />
    <glyph glyph-name="uni0E42" unicode="&#xe42;" horiz-adv-x="399" 
d="M530 1098c-9.33301 -3.33301 -21.334 -6.00293 -36.001 -8.00293s-30.667 -3 -48 -3c-32 0 -63.333 2.33301 -94 7s-58 8.5 -82 11.5s-43.333 3.33301 -58 1s-22 -10.833 -22 -25.5c0 -10 4 -19 12 -27s16.667 -17.167 26 -27.5s18 -23 26 -38s12 -33.833 12 -56.5v-932
h-133v903c0 22.667 -4 40.834 -12 54.501s-16.667 26.5 -26 38.5s-18 24.833 -26 38.5s-12 32.167 -12 55.5c0 42 14.667 74 44 96s68 33 116 33c22.667 0 42.167 -1.16699 58.5 -3.5s31.833 -4.66602 46.5 -6.99902s30.334 -4.66602 47.001 -6.99902s37 -3.5 61 -3.5
c20.667 0 39.5 0.833008 56.5 2.5s31.5 4.16699 43.5 7.5v-110v0z" />
    <glyph glyph-name="uni0E43" unicode="&#xe43;" horiz-adv-x="399" 
d="M360 1130c0.666992 -22 -1.16797 -40.335 -5.50098 -55.002s-10 -27 -17 -37s-14.667 -18.667 -23 -26s-16 -15.166 -23 -23.499s-13 -17.833 -18 -28.5s-7.5 -24 -7.5 -40v-920h-133v936c0 25.333 5.33301 45 16 59s22.5 26.333 35.5 37s24.833 21.5 35.5 32.5
s16 26.167 16 45.5c0 23.333 -8.16699 39.833 -24.5 49.5s-41.166 14.5 -74.499 14.5h-6c-34 0 -58.833 -8.16699 -74.5 -24.5s-23.5 -37.166 -23.5 -62.499v-14h-131v29c0 28 5 52.5 15 73.5s24 38.5 42 52.5s39.333 24.5 64 31.5s51.667 10.5 81 10.5h58
c34 0 63.333 -3.66699 88 -11s45 -17.5 61 -30.5s28 -28 36 -45s12.333 -34.833 13 -53.5z" />
    <glyph glyph-name="uni0E44" unicode="&#xe44;" horiz-adv-x="399" 
d="M342 1090c0 -23.333 -4.00098 -42 -12.001 -56s-16.667 -27 -26 -39s-18 -24.667 -26 -38s-12 -31.333 -12 -54v-903h-133v932c0 20 4 36.5 12 49.5s16.667 24.333 26 34l26 27.5c8 8.66699 12 18.667 12 30c0 15.333 -7.33301 24.833 -22 28.5s-34 4.66699 -58 3
s-51.333 -4.5 -82 -8.5s-62 -6 -94 -6c-17.333 0 -33.333 0.833008 -48 2.5s-26.667 4.16699 -36 7.5v110c12.667 -3.33301 27.334 -5.83301 44.001 -7.5s35.334 -2.5 56.001 -2.5s39.167 1 55.5 3s32.166 4.16699 47.499 6.5s30.833 4.5 46.5 6.5s33.5 3 53.5 3
c52 0 93.333 -10.5 124 -31.5s46 -53.5 46 -97.5z" />
    <glyph glyph-name="uni0E45" unicode="&#xe45;" horiz-adv-x="539" 
d="M334 -246l-0.000976562 715.001c0 32.667 -4.33301 62.834 -13 90.501s-21.5 51.667 -38.5 72s-38.333 36.166 -64 47.499s-55.5 17 -89.5 17h-98v123h135c52 0 96.833 -8.5 134.5 -25.5s68.834 -40.333 93.501 -70s43 -64.334 55 -104.001s18 -82.167 18 -127.5v-738
h-133z" />
    <glyph glyph-name="uni0E46" unicode="&#xe46;" horiz-adv-x="772" 
d="M567 -246l0.00195312 955.001l-159 -152l-140 141c-10 0.666992 -19.833 -0.333008 -29.5 -3s-18.334 -7.5 -26.001 -14.5s-14 -16.5 -19 -28.5s-7.5 -26.667 -7.5 -44c0 -19.333 3.5 -34.833 10.5 -46.5s15.833 -20.167 26.5 -25.5s22.167 -8.33301 34.5 -9
s23.5 0.333008 33.5 3v-110c-33.333 -5.33301 -64.5 -6.5 -93.5 -3.5s-54.333 11.833 -76 26.5s-38.834 35.667 -51.501 63s-19 62.666 -19 105.999c0 27.333 3.16699 53.5 9.5 78.5s17 47 32 66s34.667 34.167 59 45.5s54.5 17 90.5 17h59l115 -110l121 110h163v-1065h-133
z" />
    <glyph glyph-name="uni0E47" unicode="&#xe47;" 
d="M-256 922l-87.999 59l-92 -59h-240v100c0 24.667 4.16699 47.667 12.5 69s21.5 40 39.5 56s41 28.5 69 37.5s62 13.5 102 13.5h342v-94h-344c-32.667 0 -55.834 -6.16699 -69.501 -18.5s-20.5 -26.833 -20.5 -43.5v-24h96l105 61l104 -61h129v-96h-145z" />
    <glyph glyph-name="uni0E48" unicode="&#xe48;" 
d="M-205 1188v205h133v-205h-133z" />
    <glyph glyph-name="uni0E49" unicode="&#xe49;" 
d="M-305 1188l0.00195312 88c0 7.33301 -2 14.333 -6 21s-12.333 10 -25 10h-22v92h86c19.333 0 35.166 -2.33301 47.499 -7s22.166 -10.667 29.499 -18s12.333 -16 15 -26s4 -20.333 4 -31v-29h260v-100h-389z" />
    <glyph glyph-name="uni0E4A" unicode="&#xe4a;" 
d="M-55 1188l-0.000976562 88.001c0 6 -1.5 10.833 -4.5 14.5s-6.16699 6.5 -9.5 8.5c-4 2.66699 -8.33301 4.66699 -13 6l-80 -64l-90 64c-5.33301 -0.666992 -10 -2.33398 -14 -5.00098c-8.66699 -4.66699 -13 -12 -13 -22v-90h-118v90c0 43.333 12.833 74.333 38.5 93
s58.5 28 98.5 28h27l71 -47l66 47h26c18.667 0 36.334 -2 53.001 -6s31.167 -10.333 43.5 -19s22 -20 29 -34s10.5 -31.333 10.5 -52v-12h102v-88h-223z" />
    <glyph glyph-name="uni0E4B" unicode="&#xe4b;" 
d="M-78 1276v-88h-121v88h-94v90h94v90h121v-90h96v-90h-96z" />
    <glyph glyph-name="uni0E4C" unicode="&#xe4c;" 
d="M-90 1202c-15.333 0 -27.666 -3.66699 -36.999 -11s-14 -18.666 -14 -33.999v-41h-125v55c0 47.333 13.667 81.166 41 101.499s62.666 30.5 105.999 30.5h119v-101h-90z" />
    <glyph glyph-name="uni0E4D" unicode="&#xe4d;" 
d="M-35 1026c0 -24.667 -8.83301 -46.5 -26.5 -65.5s-42.834 -28.5 -75.501 -28.5c-33.333 0 -59.166 9.5 -77.499 28.5s-27.5 40.833 -27.5 65.5s9.16699 46.5 27.5 65.5s44.166 28.5 77.499 28.5c32.667 0 57.834 -9.5 75.501 -28.5s26.5 -40.833 26.5 -65.5z" />
    <glyph glyph-name="uni0E4E" unicode="&#xe4e;" 
d="M80 1438c-17.333 1.33301 -32.668 2.33496 -46.001 3.00195s-24.666 1 -33.999 1c-25.333 0 -51.166 -1.66699 -77.499 -5s-49.166 -8.66602 -68.499 -15.999c-19.333 -6.66699 -34.5 -15.334 -45.5 -26.001s-16.5 -23 -16.5 -37c0 -19.333 9.66699 -31 29 -35
s50 -6 92 -6v-94c-13.333 1.33301 -25.166 2.33301 -35.499 3s-19.833 1 -28.5 1c-26.667 0 -51.334 -2 -74.001 -6s-42.5 -9.5 -59.5 -16.5s-30.333 -15.667 -40 -26s-14.5 -21.5 -14.5 -33.5c0 -19.333 16.333 -29 49 -29c20.667 0 40.167 3.16699 58.5 9.5
s37.833 14.166 58.5 23.499l49 -82c-23.333 -12.667 -50 -23.667 -80 -33s-60 -14 -90 -14c-5.33301 1.33301 -8.33301 2 -9 2h-7h-11c-38 4 -68.667 16 -92 36s-35 45 -35 75c0 28 8 53.167 24 75.5s38 40.166 66 53.499c23.333 14 50.666 22 81.999 24
c-28.667 14 -43 38.667 -43 74c0 14 3.16699 28.167 9.5 42.5s15.166 28 26.499 41s24.833 24.833 40.5 35.5s32.5 19.334 50.5 26.001c36 15.333 75.167 24.666 117.5 27.999s85.5 5 129.5 5h25v-100v0z" />
    <glyph glyph-name="uni0E4F" unicode="&#xe4f;" horiz-adv-x="983" 
d="M911 410c0 -58 -11 -112.5 -33 -163.5s-52 -95.5 -90 -133.5s-82.333 -68 -133 -90s-105 -33 -163 -33s-112.5 11 -163.5 33s-95.5 52 -133.5 90s-68 82.5 -90 133.5s-33 105.5 -33 163.5s11 112.333 33 163s52 95 90 133s82.5 68 133.5 90s105.5 33 163.5 33
s112.333 -11 163 -33s95 -52 133 -90s68 -82.333 90 -133s33 -105 33 -163zM850 410c0 48.667 -9.5 94.834 -28.5 138.501s-44.667 81.667 -77 114s-70.333 58 -114 77s-89.834 28.5 -138.501 28.5c-49.333 0 -95.833 -9.5 -139.5 -28.5s-81.667 -44.667 -114 -77
s-58 -70.333 -77 -114s-28.5 -89.834 -28.5 -138.501c0 -49.333 9.5 -95.833 28.5 -139.5s44.667 -81.667 77 -114s70.333 -58 114 -77s90.167 -28.5 139.5 -28.5c48.667 0 94.834 9.5 138.501 28.5s81.667 44.667 114 77s58 70.333 77 114s28.5 90.167 28.5 139.5zM748 410
c0 -35.333 -6.66699 -68.666 -20 -99.999s-31.666 -58.5 -54.999 -81.5s-50.5 -41.167 -81.5 -54.5s-64.167 -20 -99.5 -20s-68.666 6.66699 -99.999 20s-58.5 31.5 -81.5 54.5s-41.167 50.167 -54.5 81.5s-20 64.666 -20 99.999s6.66699 68.5 20 99.5
s31.5 58.167 54.5 81.5s50.167 41.666 81.5 54.999s64.666 20 99.999 20s68.5 -6.66699 99.5 -20s58.167 -31.666 81.5 -54.999s41.666 -50.5 54.999 -81.5s20 -64.167 20 -99.5z" />
    <glyph glyph-name="uni0E50" unicode="&#xe50;" horiz-adv-x="764" 
d="M715 309c0 -45.333 -7 -87.333 -21 -126s-35 -72.334 -63 -101.001s-62.833 -51.167 -104.5 -67.5s-90.167 -24.5 -145.5 -24.5s-103.666 8.16699 -144.999 24.5s-75.666 38.833 -102.999 67.5s-47.833 62.334 -61.5 101.001s-20.5 80.667 -20.5 126
c0 44.667 6.83301 86.167 20.5 124.5s34.167 71.666 61.5 99.999s61.666 50.666 102.999 66.999s89.666 24.5 144.999 24.5s103.833 -8.16699 145.5 -24.5s76.5 -38.666 104.5 -66.999s49 -61.666 63 -99.999s21 -79.833 21 -124.5zM575 309c0 30 -4.5 57.5 -13.5 82.5
s-22 46.167 -39 63.5s-37.333 30.833 -61 40.5s-50.5 14.5 -80.5 14.5s-56.667 -4.83301 -80 -14.5s-43.333 -23.167 -60 -40.5s-29.334 -38.5 -38.001 -63.5s-13 -52.5 -13 -82.5s4.33301 -57.667 13 -83s21.334 -47 38.001 -65s36.667 -32 60 -42s50 -15 80 -15
s56.833 5 80.5 15s44 24 61 42s30 39.667 39 65s13.5 53 13.5 83z" />
    <glyph glyph-name="uni0E51" unicode="&#xe51;" horiz-adv-x="764" 
d="M713 307c-1.33301 -52 -12.001 -98.0039 -32.001 -138.004s-47.5 -73.833 -82.5 -101.5s-76.667 -49 -125 -64s-101.166 -22.833 -158.499 -23.5c-49.333 -1.33301 -92.166 0.666992 -128.499 6s-63.166 10 -80.499 14l-22 111
c25.333 -7.33301 56.833 -13.833 94.5 -19.5s76.5 -7.5 116.5 -5.5c46 2.66699 86.333 10.334 121 23.001s63.667 28.834 87 48.501s40.833 42.334 52.5 68.001s17.5 53.5 17.5 83.5c0 34 -5.16699 63.167 -15.5 87.5s-24.5 44.5 -42.5 60.5s-39.667 27.833 -65 35.5
s-53 11.5 -83 11.5c-26.667 0 -50.834 -3.16699 -72.501 -9.5s-40.334 -15.166 -56.001 -26.499s-27.667 -24.5 -36 -39.5s-12.5 -30.833 -12.5 -47.5c0 -23.333 5.33301 -41.5 16 -54.5s24.167 -22.5 40.5 -28.5s34 -9.33301 53 -10s36.5 0.333008 52.5 3v-113l-30 -4
c-35.333 -4.66699 -69.333 -4.5 -102 0.5s-61.5 15.833 -86.5 32.5s-45 39.167 -60 67.5s-22.5 63.833 -22.5 106.5c0 33.333 7.66699 64.833 23 94.5s36.833 55.5 64.5 77.5s60.834 39.5 99.501 52.5s81.667 19.5 129 19.5c55.333 0 104.666 -7.66699 147.999 -23
s79.833 -36.833 109.5 -64.5s52 -61 67 -100s22.167 -82.5 21.5 -130.5z" />
    <glyph glyph-name="uni0E52" unicode="&#xe52;" horiz-adv-x="961" 
d="M72 0l-0.00292969 640.995c0 28 -6.66699 53 -20 75s-30.666 39.333 -51.999 52l115 61c24.667 -12 45.5 -30.5 62.5 -55.5s25.5 -55.5 25.5 -91.5v-571h557v391l-129 -119l-135 111c-10 0 -19.667 -1.16699 -29 -3.5s-17.666 -7.16602 -24.999 -14.499
s-13.166 -17.666 -17.499 -30.999s-6.5 -31.333 -6.5 -54c0 -19.333 2.83301 -34.666 8.5 -45.999s13.334 -19.833 23.001 -25.5s20.667 -9.16699 33 -10.5s25.5 -1.33301 39.5 0v-102l-12 -2c-77.333 -13.333 -133.666 -5.66602 -168.999 23.001s-54 78.334 -56 149.001
c-1.33301 40.667 2.16699 75.167 10.5 103.5s20.166 51.5 35.499 69.5s34.166 31.167 56.499 39.5s47.5 12.5 75.5 12.5h63l101 -84l98 84h164v-602h-817z" />
    <glyph glyph-name="uni0E53" unicode="&#xe53;" horiz-adv-x="780" 
d="M569 0l-0.00195312 496.002l-139 -111l-135 113c-8 0.666992 -17.833 -1.66602 -29.5 -6.99902s-22.667 -15.333 -33 -30s-19.166 -35.167 -26.499 -61.5s-11 -59.833 -11 -100.5c0 -42 3.83301 -75.333 11.5 -100s18.334 -43.334 32.001 -56.001s30 -20.334 49 -23.001
s39.833 -3 62.5 -1v-121l-49 -2c-48 -2 -88 4.16699 -120 18.5s-57.667 35 -77 62s-33 59.333 -41 97s-12 78.834 -12 123.501c0 53.333 5.5 100.166 16.5 140.499s26 74.166 45 101.499s41.667 47.833 68 61.5s54.833 20.5 85.5 20.5h45l119 -93l119 86h156v-614h-136z" />
    <glyph glyph-name="uni0E54" unicode="&#xe54;" horiz-adv-x="809" 
d="M442 481c-88 0 -151.999 -16.333 -191.999 -49s-60 -79.667 -60 -141c0 -64.667 23 -112.167 69 -142.5s116.667 -42.833 212 -37.5c-25.333 6 -45.666 18.333 -60.999 37s-23 39.667 -23 63c0 28.667 10.667 53.5 32 74.5s49.666 31.5 84.999 31.5
c17.333 0 33.166 -2.83301 47.499 -8.5s26.666 -13.334 36.999 -23.001s18.333 -21 24 -34s8.5 -26.5 8.5 -40.5c0 -23.333 -7.5 -44.333 -22.5 -63s-34.833 -31 -59.5 -37h198v-111h-370c-44 0 -85.333 5.33301 -124 16s-72.167 27.334 -100.5 50.001
s-50.666 52 -66.999 88s-24.5 79 -24.5 129c0 48 7.5 91 22.5 129s36.667 70.167 65 96.5s62.833 46.5 103.5 60.5s87 21 139 21h240v229h135v-338h-314z" />
    <glyph glyph-name="uni0E55" unicode="&#xe55;" horiz-adv-x="819" 
d="M442 481c-88 0 -151.999 -16.332 -191.999 -48.999s-60 -79.667 -60 -141c0 -64.667 23 -112.167 69 -142.5s116.667 -42.833 212 -37.5c-25.333 6 -45.666 18.333 -60.999 37s-23 39.667 -23 63c0 28.667 10.667 53.5 32 74.5s49.666 31.5 84.999 31.5
c17.333 0 33.166 -2.83301 47.499 -8.5s26.666 -13.334 36.999 -23.001s18.333 -21 24 -34s8.5 -26.5 8.5 -40.5c0 -23.333 -7.5 -44.333 -22.5 -63s-34.833 -31 -59.5 -37h198v-111h-370c-44 -0 -85.333 5.33301 -124 16s-72.167 27.334 -100.5 50.001
s-50.666 52 -66.999 88s-24.5 79 -24.5 129c0 88.667 24.333 159.334 73 212.001s116.667 83.667 204 93c-18.667 9.33301 -33 22.166 -43 38.499s-15 34.833 -15 55.5c0 16 3.5 30.833 10.5 44.5s16.667 25.5 29 35.5s27 18 44 24s35.167 9 54.5 9s37.333 -3 54 -9
s31.167 -14 43.5 -24s22 -21.833 29 -35.5s10.5 -28.5 10.5 -44.5c0 -40.667 -17.667 -71.334 -53 -92.001h149v229h135v-338h-334z" />
    <glyph glyph-name="uni0E56" unicode="&#xe56;" horiz-adv-x="762" 
d="M713 299c0 -57.333 -7.83203 -105.669 -23.499 -145.002s-37.834 -71.166 -66.501 -95.499s-63.5 -41.833 -104.5 -52.5s-86.833 -16 -137.5 -16c-44 0 -84.333 4.33301 -121 13s-68.334 22.167 -95.001 40.5s-47.834 41.833 -63.501 70.5s-24.167 63 -25.5 103h139
c2 -22.667 8.16699 -41.5 18.5 -56.5s23.333 -27 39 -36s33.334 -15.333 53.001 -19s40.167 -5.5 61.5 -5.5c26.667 0 51.334 3.83301 74.001 11.5s42.334 19.5 59.001 35.5s29.667 36.5 39 61.5s14 55.167 14 90.5c0 64 -15.333 113.167 -46 147.5
s-77.334 51.5 -140.001 51.5c-23.333 0 -44.333 -3.16699 -63 -9.5s-34.834 -14.166 -48.501 -23.499s-24.667 -19.5 -33 -30.5s-14.166 -21.5 -17.499 -31.5h-153v250c0 30 -6.66699 54.167 -20 72.5s-30.666 32.5 -51.999 42.5l115 61c30 -11.333 52.167 -28.5 66.5 -51.5
s21.5 -50.167 21.5 -81.5v-188c6.66699 12 16.834 23.667 30.501 35s29.667 21.5 48 30.5s38.666 16.333 60.999 22s46.166 8.5 71.499 8.5c54 0 100 -7.5 138 -22.5s69 -36 93 -63s41.333 -59.167 52 -96.5s16 -78.333 16 -123z" />
    <glyph glyph-name="uni0E57" unicode="&#xe57;" horiz-adv-x="1034" 
d="M1028 768c-16.667 -13.333 -31.6699 -30.999 -45.0029 -52.999s-20 -47.333 -20 -76v-430c0 -74 -21.167 -128 -63.5 -162s-99.833 -50.333 -172.5 -49l-158 2v496l-139 -111l-135 113c-8 0.666992 -17.833 -1.66602 -29.5 -6.99902s-22.667 -15.333 -33 -30
s-19.166 -35.167 -26.499 -61.5s-11 -59.833 -11 -100.5c0 -42 3.83301 -75.333 11.5 -100s18.334 -43.334 32.001 -56.001s30 -20.334 49 -23.001s39.833 -3 62.5 -1v-121l-49 -2c-48 -2 -88 4.16699 -120 18.5s-57.667 35 -77 62s-33 59.333 -41 97
s-12 78.834 -12 123.501c0 53.333 5.5 100.166 16.5 140.499s26 74.166 45 101.499s41.667 47.833 68 61.5s54.833 20.5 85.5 20.5h45l119 -93l119 86h156v-503c26.667 0 48.5 3.5 65.5 10.5s30.333 17 40 30s16.334 28.5 20.001 46.5s5.5 38 5.5 60v416
c0 20.667 3 39.334 9 56.001s13.667 31.334 23 44.001s19.333 23.667 30 33s20.667 16.666 30 21.999l100 -61v0z" />
    <glyph glyph-name="uni0E58" unicode="&#xe58;" horiz-adv-x="776" 
d="M532 0l-122.002 126.999l-121 -127l-64 -2c-24 -1.33301 -46.5 4.5 -67.5 17.5s-39.5 32.167 -55.5 57.5s-28.5 56.833 -37.5 94.5s-13.5 80.834 -13.5 129.501c0 43.333 5 83 15 119s26.167 66.833 48.5 92.5s51.833 45.667 88.5 60s81.667 21.5 135 21.5h231v229h136
v-338h-308c-37.333 0 -69.166 -3.5 -95.499 -10.5s-47.666 -17.833 -63.999 -32.5s-28.333 -33.667 -36 -57s-11.5 -51.333 -11.5 -84c0 -34 2.5 -61.833 7.5 -83.5s11.333 -39 19 -52s16 -22.5 25 -28.5s17.167 -10 24.5 -12l146 139l157 -149v151h136v-262h-173z" />
    <glyph glyph-name="uni0E59" unicode="&#xe59;" horiz-adv-x="881" 
d="M885 760c-17.333 -11.333 -30.6641 -24.3311 -39.9971 -38.998s-14 -34.334 -14 -59.001v-183h-145c-15.333 0 -26.666 -4.5 -33.999 -13.5s-13.666 -22.167 -18.999 -39.5l-29 -94c-2.66699 -8 -4.83398 -18.5 -6.50098 -31.5s-2.83398 -26.333 -3.50098 -40
s-0.666992 -26.834 0 -39.501s2.66699 -23 6 -31l74 -190h-135l-185 479c-26 1.33301 -49.167 0.166016 -69.5 -3.50098s-37.5 -12 -51.5 -25s-24.667 -32 -32 -57s-11 -57.833 -11 -98.5c0 -38.667 3.33301 -70 10 -94s16.667 -42.5 30 -55.5s30 -21.333 50 -25
s43.333 -4.16699 70 -1.5v-121l-49 -2c-50.667 -2 -92.167 4 -124.5 18s-57.833 34.167 -76.5 60.5s-31.5 58.166 -38.5 95.499s-10.5 78.333 -10.5 123c0 100.667 18.667 175.334 56 224.001s98.666 73 183.999 73h153l64 -152l35 92
c7.33301 18.667 18.166 33.334 32.499 44.001s34.166 16 59.499 16h59v121c0 30.667 8.5 56 25.5 76s35.833 34 56.5 42l109 -69v0z" />
    <glyph glyph-name="uni0E5A" unicode="&#xe5a;" horiz-adv-x="979" 
d="M772 0v819h133v-819h-133zM557 0l0.000976562 631.001c-12 -17.333 -27.833 -34 -47.5 -50s-42 -30 -67 -42s-52.833 -21.5 -83.5 -28.5s-63 -10.5 -97 -10.5c-27.333 0 -53.833 3.83301 -79.5 11.5s-48.167 19 -67.5 34s-34.833 33.5 -46.5 55.5s-17.5 47 -17.5 75
c0 22 3.66699 42 11 60s17.5 33.333 30.5 46s28.333 22.5 46 29.5s36.5 10.167 56.5 9.5l75 -2v-92h-20c-17.333 0 -32.333 -5.33301 -45 -16s-19 -23.667 -19 -39c0 -23.333 10.333 -41.833 31 -55.5s48 -20.5 82 -20.5c25.333 0 52.166 5.16699 80.499 15.5
s54.666 25.166 78.999 44.499s45.333 42.833 63 70.5s28.834 58.5 33.501 92.5h135v-819h-133z" />
    <glyph glyph-name="uni0E5B" unicode="&#xe5b;" horiz-adv-x="1393" 
d="M1368 434c0 -8 -5.83887 -15.8359 -17.5059 -23.5029s-24.167 -12.167 -37.5 -13.5l-103 -10c-4 -13.333 -10.333 -26.166 -19 -38.499s-18.667 -18.5 -30 -18.5c-10 0 -20.333 7.33301 -31 22c-3.33301 3.33301 -7 9 -11 17s-9.66699 18 -17 30
c-7.33301 -24.667 -16.333 -46.167 -27 -64.5s-21.667 -27.5 -33 -27.5c-9.33301 0 -19.666 9.5 -30.999 28.5s-24.666 44.5 -39.999 76.5c-5.33301 -19.333 -10.333 -36.166 -15 -50.499s-8.66699 -25.5 -12 -33.5c-12 -27.333 -25 -41 -39 -41
c-12.667 0 -28.334 21 -47.001 63c-5.33301 11.333 -10.166 23 -14.499 35s-9.16602 23.667 -14.499 35c-4 -18.667 -9.33301 -37.334 -16 -56.001s-14 -35.5 -22 -50.5s-16 -27.333 -24 -37s-15.333 -14.5 -22 -14.5c-22.667 0 -37.667 11.667 -45 35
c-3.33301 12.667 -5.5 23.167 -6.5 31.5s-2.16699 16.166 -3.5 23.499c-2 14 -8 34.667 -18 62c-11.333 -46 -26.5 -88.667 -45.5 -128s-40.833 -72 -65.5 -98c-66.667 -74.667 -142.334 -112 -227.001 -112c-41.333 0 -78.666 8.16699 -111.999 24.5s-62 39.166 -86 68.499
s-42.5 64.833 -55.5 106.5s-19.5 87.834 -19.5 138.501c0 99.333 23.333 180.333 70 243c23.333 34 50.166 59 80.499 75s63.5 24 99.5 24c28.667 0 56 -6.16699 82 -18.5s48.667 -29.666 68 -51.999s34.666 -48.833 45.999 -79.5s17 -64 17 -100
c0 -29.333 -3.33301 -55.666 -10 -78.999s-16.167 -43.333 -28.5 -60s-26.833 -29.5 -43.5 -38.5s-35 -13.5 -55 -13.5c-16 0 -31.5 3.5 -46.5 10.5s-28.167 16.5 -39.5 28.5s-20.333 26.167 -27 42.5s-10 33.833 -10 52.5c0 18 3.33301 35 10 51s15.667 30.333 27 43
s24.166 22.667 38.499 30s29.5 11 45.5 11l21 -2c-23.333 53.333 -54.333 80 -93 80c-21.333 0 -41.166 -6.33301 -59.499 -19s-34.166 -30.334 -47.499 -53.001s-24 -49.667 -32 -81s-12 -65.666 -12 -102.999s4.5 -70.666 13.5 -99.999s21.5 -54.166 37.5 -74.499
s35.167 -36 57.5 -47s46.833 -16.5 73.5 -16.5c31.333 0 60.833 8.16699 88.5 24.5s52.5 39.5 74.5 69.5s41 66.5 57 109.5s28 91.167 36 144.5c5.33301 33.333 11.833 55.333 19.5 66s20.167 16 37.5 16c6.66699 0 14.167 -4 22.5 -12s16.833 -18.667 25.5 -32
s17.334 -29 26.001 -47s17 -37.333 25 -58l12 73c10 38.667 23.667 58 41 58c12.667 0 27.834 -10.833 45.501 -32.5s33.167 -50.5 46.5 -86.5c10.667 54.667 25.667 82 45 82c15.333 0 30.833 -9.83301 46.5 -29.5s31.5 -45.5 47.5 -77.5
c8.66699 25.333 16.834 44.666 24.501 57.999s18.167 20 31.5 20c9.33301 0 19.5 -6.16699 30.5 -18.5s21.167 -27.166 30.5 -44.499c10.667 21.333 26.334 30.666 47.001 27.999l111 -14c12 0 23.833 -3.33301 35.5 -10s17.5 -13.667 17.5 -21zM433.994 448.997
c0 40.667 -16.333 60.999 -49 60.999c-12.667 0 -24 -5.83301 -34 -17.5s-15 -26.167 -15 -43.5s4.83301 -31.666 14.5 -42.999s21.167 -17 34.5 -17c32.667 0 49 20 49 60z" />
    <glyph glyph-name="zerowidthnonjoiner" unicode="&#x200c;" 
 />
    <glyph glyph-name="zerowidthjoiner" unicode="&#x200d;" 
 />
    <glyph glyph-name="endash" unicode="&#x2013;" horiz-adv-x="829" 
d="M66 289v121h698v-121h-698z" />
    <glyph glyph-name="emdash" unicode="&#x2014;" horiz-adv-x="1659" 
d="M66 289v121h1527v-121h-1527z" />
    <glyph glyph-name="quoteleft" unicode="&#x2018;" horiz-adv-x="375" 
d="M113 616v150.001c0 26.667 2.83301 52 8.5 76s14.667 45.167 27 63.5s27.833 32.833 46.5 43.5s41 16 67 16v-68c-15.333 0 -28 -3.83301 -38 -11.5s-18 -17.834 -24 -30.501s-10.167 -26.667 -12.5 -42s-3.5 -31 -3.5 -47h80v-150h-151z" />
    <glyph glyph-name="quoteright" unicode="&#x2019;" horiz-adv-x="375" 
d="M262 815c0 -26.667 -2.83203 -52 -8.49902 -76s-14.667 -45.167 -27 -63.5s-27.833 -32.833 -46.5 -43.5s-41 -16 -67 -16v68c15.333 0 28.166 4 38.499 12s18.5 18.167 24.5 30.5s10.333 26.333 13 42s4 31.167 4 46.5h-80v150h149v-150v0z" />
    <glyph glyph-name="quotedblleft" unicode="&#x201c;" horiz-adv-x="575" 
d="M336 616v150.001c0 26.667 2.83301 52 8.5 76s14.667 45.167 27 63.5s27.833 32.833 46.5 43.5s41 16 67 16v-68c-15.333 0 -28 -3.83301 -38 -11.5s-17.833 -17.834 -23.5 -30.501s-9.66699 -26.667 -12 -42s-3.5 -31 -3.5 -47h79v-150h-151zM90 616.001v150.001
c0 26.667 2.83301 52 8.5 76s14.5 45.167 26.5 63.5s27.333 32.833 46 43.5s41 16 67 16v-68c-15.333 0 -28 -3.83301 -38 -11.5s-18 -17.834 -24 -30.501s-10.167 -26.667 -12.5 -42s-3.5 -31 -3.5 -47h80v-150h-150z" />
    <glyph glyph-name="quotedblright" unicode="&#x201d;" horiz-adv-x="575" 
d="M487 815c0 -26.667 -2.83301 -52 -8.5 -76s-14.667 -45.167 -27 -63.5s-27.833 -32.833 -46.5 -43.5s-41 -16 -67 -16v68c15.333 0 28 4 38 12s18 18.167 24 30.5s10.167 26.333 12.5 42s3.5 31.167 3.5 46.5h-80v150h151v-150zM240 815c0 -26.667 -2.83301 -52 -8.5 -76
s-14.667 -45.167 -27 -63.5s-28 -32.833 -47 -43.5s-41.5 -16 -67.5 -16v68c15.333 0 28 4 38 12s18 18.167 24 30.5s10.167 26.333 12.5 42s3.5 31.167 3.5 46.5h-78v150h150v-150z" />
    <glyph glyph-name="bullet" unicode="&#x2022;" horiz-adv-x="758" 
d="M686 410c0 -42.667 -8 -82.667 -24 -120s-37.833 -70 -65.5 -98s-60.167 -50 -97.5 -66s-77.333 -24 -120 -24s-82.667 8 -120 24s-69.833 38 -97.5 66s-49.5 60.667 -65.5 98s-24 77.333 -24 120s8 82.667 24 120s37.833 69.833 65.5 97.5s60.167 49.5 97.5 65.5
s77.333 24 120 24s82.667 -8 120 -24s69.833 -37.833 97.5 -65.5s49.5 -60.167 65.5 -97.5s24 -77.333 24 -120z" />
    <glyph glyph-name="ellipsis" unicode="&#x2026;" horiz-adv-x="1382" 
d="M1073 0v156h156v-156h-156zM614 0v156h154v-156h-154zM154 0v156h155v-156h-155z" />
    <glyph glyph-name="thothannobasethai" unicode="&#xf700;" horiz-adv-x="756" 
d="M705 430c-2 -68 -10.0039 -128.667 -24.0039 -182s-33.833 -98.333 -59.5 -135s-57.167 -64.667 -94.5 -84s-80 -29 -128 -29h-245l-41 330c-3.33301 24.667 -8.83301 42.334 -16.5 53.001s-22.167 16 -43.5 16h-22v107h121c23.333 0 41.833 -6.83301 55.5 -20.5
s22.167 -30.834 25.5 -51.501l41 -323h95c21.333 0 43.833 5.33301 67.5 16s45.5 28.5 65.5 53.5s36.5 57.833 49.5 98.5s19.5 91 19.5 151c0 52 -6 96.5 -18 133.5s-28.5 67.5 -49.5 91.5s-45.5 41.667 -73.5 53s-58 17 -90 17c-46 0 -84.667 -11.167 -116 -33.5
s-52.666 -51.5 -63.999 -87.5h-144c6 31.333 17.833 61 35.5 89s40.834 52.667 69.501 74s62.334 38.166 101.001 50.499s82.667 18.5 132 18.5c53.333 0 101.333 -8.33301 144 -25c13.333 10 22.833 21.5 28.5 34.5s9.16699 24.833 10.5 35.5h161
c-4 -23.333 -15 -46.666 -33 -69.999s-44.333 -41 -79 -53c41.333 -37.333 71.833 -83.833 91.5 -139.5s28.834 -118.5 27.501 -188.5z" />
    <glyph glyph-name="saraileftthai" unicode="&#xf701;" 
d="M-287 1010c0 -28 -7.66699 -49.667 -23 -65s-37 -23 -65 -23h-489v112h577v-24v0z" />
    <glyph glyph-name="saraiileftthai" unicode="&#xf702;" 
d="M-864 922v112h444v103h133v-215h-577z" />
    <glyph glyph-name="saraueleftthai" unicode="&#xf703;" 
d="M-233 1026c0 -13.333 -2.66699 -26.167 -8 -38.5s-13 -23.333 -23 -33s-22.5 -17.5 -37.5 -23.5s-31.833 -9 -50.5 -9h-512v112h389c1.33301 28 12.333 51.5 33 70.5s50.667 28.5 90 28.5c19.333 0 36.5 -2.83301 51.5 -8.5s27.5 -13.5 37.5 -23.5s17.5 -21.5 22.5 -34.5
s7.5 -26.5 7.5 -40.5z" />
    <glyph glyph-name="saraueeleftthai" unicode="&#xf704;" 
d="M-864 922v112h250v103h133v-103h61v103h133v-215h-577z" />
    <glyph glyph-name="maieklowleftthai" unicode="&#xf705;" 
d="M-459 922v245h133v-245h-133z" />
    <glyph glyph-name="maitholowleftthai" unicode="&#xf706;" 
d="M-504 922l0.000976562 85.999c0 14 -3.83301 25.333 -11.5 34s-18.834 13 -33.501 13h-14v102h96c21.333 0 39 -2.5 53 -7.5s25 -11.667 33 -20s13.5 -18.166 16.5 -29.499s4.5 -23 4.5 -35v-31h350v-112h-494z" />
    <glyph glyph-name="maitrilowleftthai" unicode="&#xf707;" 
d="M-365 922l-0.000976562 98.0029c0 7.33301 -1.66699 13 -5 17s-6.66602 7.33301 -9.99902 10c-4.66699 2.66699 -9.66699 4.66699 -15 6l-88 -72l-101 72c-5.33301 -0.666992 -10 -2.33398 -14 -5.00098c-3.33301 -2 -6.5 -5.16699 -9.5 -9.5s-4.5 -9.83301 -4.5 -16.5
v-100h-133v100c0 48 14.167 82.5 42.5 103.5s65.166 31.5 110.499 31.5h29l80 -53l73 53h29c20.667 0 40.167 -2.16699 58.5 -6.5s34.333 -11.333 48 -21s24.334 -22.334 32.001 -38.001s11.5 -34.834 11.5 -57.501v-10h221v-102h-355z" />
    <glyph glyph-name="maichattawalowleftthai" unicode="&#xf708;" 
d="M-375 1018v-96h-133v96h-106v102h106v99h133v-99h109v-102h-109z" />
    <glyph glyph-name="thanthakhatlowleftthai" unicode="&#xf709;" 
d="M-348 1016c-17.333 0 -31.333 -4.16699 -42 -12.5s-16 -20.5 -16 -36.5v-45h-139v61c0 26 4.16699 48.167 12.5 66.5s19.833 33.333 34.5 45s32.167 20.167 52.5 25.5s42.5 8 66.5 8h131v-112h-100z" />
    <glyph glyph-name="maieklowrightthai" unicode="&#xf70a;" 
d="M-205 922v245h133v-245h-133z" />
    <glyph glyph-name="maitholowrightthai" unicode="&#xf70b;" 
d="M-356 922v85.999c0 14 -4 25.333 -12 34s-19 13 -33 13h-15v102h97c21.333 0 38.833 -2.5 52.5 -7.5s24.5 -11.667 32.5 -20s13.5 -18.166 16.5 -29.499s4.5 -23 4.5 -35v-31h309v-112h-452z" />
    <glyph glyph-name="maitrilowrightthai" unicode="&#xf70c;" 
d="M-270 922v98.0029c0 7.33301 -1.66699 13 -5 17s-7 7.33301 -11 10c-4.66699 2.66699 -9.66699 4.66699 -15 6l-88 -72l-100 72c-6 -0.666992 -11 -2.33398 -15 -5.00098c-3.33301 -2 -6.5 -5.16699 -9.5 -9.5s-4.5 -9.83301 -4.5 -16.5v-100h-133v100
c0 48 14.167 82.5 42.5 103.5s65.166 31.5 110.499 31.5h29l80 -53l74 53h28c20.667 0 40.167 -2.16699 58.5 -6.5s34.333 -11.333 48 -21s24.334 -22.334 32.001 -38.001s11.5 -34.834 11.5 -57.501v-14h114v-98h-247z" />
    <glyph glyph-name="maichattawalowrightthai" unicode="&#xf70d;" 
d="M-180 1018v-96h-133v96h-107v102h107v99h133v-99h108v-102h-108z" />
    <glyph glyph-name="thanthakhatlowrightthai" unicode="&#xf70e;" 
d="M-100 1016c-17.333 0 -31.333 -4.16699 -42 -12.5s-16 -20.5 -16 -36.5v-45h-139v61c0 26 4.16699 48.167 12.5 66.5s19.833 33.333 34.5 45s32.167 20.167 52.5 25.5s42.5 8 66.5 8h131v-112h-100z" />
    <glyph glyph-name="yoyingnobasethai" unicode="&#xf70f;" horiz-adv-x="1309" 
d="M1237 254c0 -35.333 -5.83301 -69.167 -17.5 -101.5s-30.167 -61 -55.5 -86s-57.666 -45 -96.999 -60s-87 -22.5 -143 -22.5c-55.333 0 -102.833 7.5 -142.5 22.5s-72 35 -97 60s-43.333 53.667 -55 86s-17.5 66.166 -17.5 101.499v293c0 30 -5.83301 56 -17.5 78
s-27 40.5 -46 55.5s-40.833 26.167 -65.5 33.5s-50.334 11 -77.001 11c-23.333 0 -45.666 -2.83301 -66.999 -8.5s-40.833 -13.5 -58.5 -23.5s-32.834 -21.833 -45.501 -35.5s-22 -28.834 -28 -45.501l100 -65c-12 -4.66699 -24 -11.167 -36 -19.5
s-22.833 -17.666 -32.5 -27.999s-17.667 -21.333 -24 -33s-9.5 -23.167 -9.5 -34.5v-317h123v-115h-256v420c0 12 2.5 24.167 7.5 36.5s11.667 23.833 20 34.5s18.166 20.167 29.499 28.5s23 14.833 35 19.5l-107 61c8 32 21.5 62.167 40.5 90.5s43.167 53.333 72.5 75
s63.833 38.834 103.5 51.501s83.834 19 132.501 19c58 0 108.333 -7.16699 151 -21.5s78 -33.833 106 -58.5s48.667 -53.167 62 -85.5s20 -66.833 20 -103.5v-295c0 -32 4.66699 -59.167 14 -81.5s22 -40.666 38 -54.999s34.833 -24.833 56.5 -31.5s45.167 -10 70.5 -10
s49 3.33301 71 10s41 17.167 57 31.5s28.667 32.666 38 54.999s14 49.5 14 81.5v547h133v-565v0z" />
    <glyph glyph-name="maihanakatleftthai" unicode="&#xf710;" 
d="M-612 922v188h133v-76h510v-112h-643z" />
    <glyph glyph-name="nikhahitleftthai" unicode="&#xf711;" 
d="M-250 1026c0 -24.667 -8.83301 -46.5 -26.5 -65.5s-42.834 -28.5 -75.501 -28.5c-33.333 0 -59.166 9.5 -77.499 28.5s-27.5 40.833 -27.5 65.5s9.16699 46.5 27.5 65.5s44.166 28.5 77.499 28.5c32.667 0 57.834 -9.5 75.501 -28.5s26.5 -40.833 26.5 -65.5z" />
    <glyph glyph-name="maitaikhuleftthai" unicode="&#xf712;" 
d="M-412 922l-88.001 59l-92 -59h-239v100c0 24.667 4.16699 47.667 12.5 69s21.333 40 39 56s40.667 28.5 69 37.5s62.5 13.5 102.5 13.5h342v-94h-344c-33.333 0 -56.666 -6.16699 -69.999 -18.5s-20 -26.833 -20 -43.5v-24h96l104 61l105 -61h129v-96h-146z" />
    <glyph glyph-name="maiekupperleftthai" unicode="&#xf713;" 
d="M-420 1188v205h133v-205h-133z" />
    <glyph glyph-name="maithoupperleftthai" unicode="&#xf714;" 
d="M-520 1188l0.00195312 88c0 7.33301 -2 14.333 -6 21s-12.333 10 -25 10h-22v92h86c19.333 0 35.166 -2.33301 47.499 -7s22.166 -10.667 29.499 -18s12.333 -16 15 -26s4 -20.333 4 -31v-29h260v-100h-389z" />
    <glyph glyph-name="maitriupperleftthai" unicode="&#xf715;" 
d="M-270 1188l-0.000976562 88.001c0 6 -1.5 10.833 -4.5 14.5s-6.16699 6.5 -9.5 8.5c-4 2.66699 -8.33301 4.66699 -13 6l-80 -64l-90 64c-5.33301 -0.666992 -10 -2.33398 -14 -5.00098c-8.66699 -4.66699 -13 -12 -13 -22v-90h-118v90c0 43.333 12.833 74.333 38.5 93
s58.5 28 98.5 28h26l72 -47l66 47h26c18.667 0 36.334 -2 53.001 -6s31 -10.333 43 -19s21.5 -20 28.5 -34s10.5 -31.333 10.5 -52v-12h103v-88h-223z" />
    <glyph glyph-name="maichattawaupperleftthai" unicode="&#xf716;" 
d="M-293 1276v-88h-121v88h-94v90h94v90h121v-90h96v-90h-96z" />
    <glyph glyph-name="thanthakhatupperleftthai" unicode="&#xf717;" 
d="M-305 1202c-15.333 0 -27.666 -3.66699 -36.999 -11s-14 -18.666 -14 -33.999v-41h-125v55c0 47.333 13.667 81.166 41 101.499s62.666 30.5 105.999 30.5h119v-101h-90z" />
    <glyph glyph-name="saraulowthai" unicode="&#xf718;" 
d="M-205 -584v150h-100v117h233v-267h-133z" />
    <glyph glyph-name="sarauulowthai" unicode="&#xf719;" 
d="M-72 -420c0 -27.333 -3.6709 -50.167 -11.0039 -68.5s-18.666 -33 -33.999 -44s-35 -18.833 -59 -23.5s-52.667 -7 -86 -7c-36 0 -66.167 2.33301 -90.5 7s-43.666 12.667 -57.999 24s-24.666 26.5 -30.999 45.5s-9.5 43.167 -9.5 72.5h-43v97h177v-103
c0 -20.667 5 -34 15 -40s23.333 -9 40 -9s30.334 3 41.001 9s16 19.333 16 40v103h133v-103v0z" />
    <glyph glyph-name="phinthulowthai" unicode="&#xf71a;" 
d="M-72 -408c0 -24.667 -9 -45.834 -27 -63.501s-41 -26.5 -69 -26.5s-51 8.83301 -69 26.5s-27 38.834 -27 63.501c0 26 9 47.667 27 65s41 26 69 26s51 -8.66699 69 -26s27 -39 27 -65z" />
    <glyph glyph-name="lochula.short" unicode="&#xf71d;" 
 />
    <glyph glyph-name="fongmanfunnuthai" unicode="&#xf880;" 
 />
    <glyph glyph-name=".null" 
 />
    <glyph glyph-name="nonmarkingreturn" horiz-adv-x="553" 
 />
    <glyph glyph-name="uni0E33_1" horiz-adv-x="477" 
d="M272 0v469.001c0 32.667 -3 62.834 -9 90.501s-16 51.667 -30 72s-32.5 36.166 -55.5 47.499s-51.5 17 -85.5 17h-61v123h90c52 0 96 -8.5 132 -25.5s65.333 -40.333 88 -70s39.167 -64.334 49.5 -104.001s15.5 -82.167 15.5 -127.5v-492h-134zM-250 1026
c0 -24.667 -8.83301 -46.5 -26.5 -65.5s-42.834 -28.5 -75.501 -28.5c-33.333 0 -59.166 9.5 -77.499 28.5s-27.5 40.833 -27.5 65.5s9.16699 46.5 27.5 65.5s44.166 28.5 77.499 28.5c32.667 0 57.834 -9.5 75.501 -28.5s26.5 -40.833 26.5 -65.5z" />
    <glyph glyph-name="uni0E4E_1" 
d="M-66 1438c-17.333 1.33301 -32.668 2.33496 -46.001 3.00195s-24.666 1 -33.999 1c-25.333 0 -51.166 -1.66699 -77.499 -5s-49.166 -8.66602 -68.499 -15.999c-19.333 -6.66699 -34.5 -15.334 -45.5 -26.001s-16.5 -23 -16.5 -37c0 -19.333 9.66699 -31 29 -35
s50 -6 92 -6v-94c-13.333 1.33301 -25.166 2.33301 -35.499 3s-19.833 1 -28.5 1c-26.667 0 -51.334 -2 -74.001 -6s-42.5 -9.5 -59.5 -16.5s-30.333 -15.667 -40 -26s-14.5 -21.5 -14.5 -33.5c0 -19.333 16.333 -29 49 -29c20.667 0 40.167 3.16699 58.5 9.5
s37.833 14.166 58.5 23.499l49 -82c-23.333 -12.667 -50 -23.667 -80 -33s-60 -14 -90 -14c-5.33301 1.33301 -8.33301 2 -9 2h-7h-11c-38 4 -68.667 16 -92 36s-35 45 -35 75c0 28 8 53.167 24 75.5s38 40.166 66 53.499c23.333 14 50.666 22 81.999 24
c-28.667 14 -43 38.667 -43 74c0 14 3.16699 28.167 9.5 42.5s15.166 28 26.499 41s24.833 24.833 40.5 35.5s32.5 19.334 50.5 26.001c36 15.333 75.167 24.666 117.5 27.999s85.5 5 129.5 5h25v-100v0z" />
    <glyph glyph-name="F881" 
 />
    <glyph glyph-name="F882" 
 />
    <glyph glyph-name="saraueesp2" 
d="M-518 1188v205h133v-205h-133zM-864 922v112h250v103h133v-103h61v103h133v-215h-577z" />
    <glyph glyph-name="saraisp" 
d="M-211 1010c0 -28 -7.66699 -49.667 -23 -65s-37 -23 -65 -23h-571v112h659v-24v0z" />
    <glyph glyph-name="saraiisp" 
d="M-870 922v112h526v103h133v-215h-659z" />
    </font>
</defs>
</svg>
